Nunito-200.ufo
<glyph name="quotedbl" format="1">
  <advance width="581"/>
  <unicode hex="0022"/>
  <outline>
    <contour>
      <point x="163" y="1007" type="curve" smooth="yes"/>
      <point x="185" y="1007"/>
      <point x="208" y="1017"/>
      <point x="212" y="1066" type="curve" smooth="yes"/>
      <point x="237" y="1421" type="line"/>
      <point x="242" y="1461"/>
      <point x="201" y="1481"/>
      <point x="164" y="1481" type="curve" smooth="yes"/>
      <point x="124" y="1481"/>
      <point x="84" y="1463"/>
      <point x="90" y="1413" type="curve" smooth="yes"/>
      <point x="90" y="1414"/>
      <point x="128" y="927"/>
      <point x="115" y="1066" type="curve" smooth="yes"/>
      <point x="119" y="1016"/>
      <point x="141" y="1007"/>
    </contour>
    <contour>
      <point x="410" y="1007" type="curve" smooth="yes"/>
      <point x="433" y="1007"/>
      <point x="455" y="1014"/>
      <point x="459" y="1066" type="curve" smooth="yes"/>
      <point x="485" y="1421" type="line"/>
      <point x="489" y="1458"/>
      <point x="448" y="1481"/>
      <point x="411" y="1481" type="curve" smooth="yes"/>
      <point x="374" y="1481"/>
      <point x="333" y="1460"/>
      <point x="337" y="1421" type="curve" smooth="yes"/>
      <point x="337" y="1422"/>
      <point x="375" y="927"/>
      <point x="362" y="1066" type="curve" smooth="yes"/>
      <point x="366" y="1018"/>
      <point x="385" y="1007"/>
    </contour>
  </outline>
</glyph>
<glyph name="percent" format="1">
  <advance width="2050"/>
  <unicode hex="0025"/>
  <outline>
    <contour>
      <point x="589" y="-73" type="curve" smooth="yes"/>
      <point x="604" y="-73"/>
      <point x="619" y="-73"/>
      <point x="628" y="-56" type="curve" smooth="yes"/>
      <point x="1437" y="1354" type="line" smooth="yes"/>
      <point x="1441" y="1361"/>
      <point x="1441" y="1367"/>
      <point x="1441" y="1374" type="curve" smooth="yes"/>
      <point x="1441" y="1405"/>
      <point x="1418" y="1428"/>
      <point x="1391" y="1428" type="curve" smooth="yes"/>
      <point x="1373" y="1428"/>
      <point x="1352" y="1417"/>
      <point x="1337" y="1392" type="curve" smooth="yes"/>
      <point x="535" y="-9" type="line" smooth="yes"/>
      <point x="532" y="-15"/>
      <point x="533" y="-17"/>
      <point x="533" y="-23" type="curve" smooth="yes"/>
      <point x="533" y="-52"/>
      <point x="560" y="-73"/>
    </contour>
    <contour>
      <point x="565" y="736" type="curve" smooth="yes"/>
      <point x="409" y="736"/>
      <point x="354" y="890"/>
      <point x="354" y="1019" type="curve" smooth="yes"/>
      <point x="354" y="1146"/>
      <point x="408" y="1301"/>
      <point x="565" y="1301" type="curve" smooth="yes"/>
      <point x="723" y="1301"/>
      <point x="777" y="1146"/>
      <point x="777" y="1019" type="curve" smooth="yes"/>
      <point x="777" y="891"/>
      <point x="723" y="736"/>
    </contour>
    <contour>
      <point x="565" y="646" type="curve" smooth="yes"/>
      <point x="774" y="646"/>
      <point x="893" y="822"/>
      <point x="893" y="1019" type="curve" smooth="yes"/>
      <point x="893" y="1213"/>
      <point x="777" y="1392"/>
      <point x="565" y="1392" type="curve" smooth="yes"/>
      <point x="358" y="1392"/>
      <point x="240" y="1218"/>
      <point x="240" y="1019" type="curve" smooth="yes"/>
      <point x="240" y="821"/>
      <point x="357" y="646"/>
    </contour>
    <contour>
      <point x="1484" y="61" type="curve" smooth="yes"/>
      <point x="1326" y="61"/>
      <point x="1273" y="215"/>
      <point x="1273" y="344" type="curve" smooth="yes"/>
      <point x="1273" y="471"/>
      <point x="1325" y="626"/>
      <point x="1484" y="626" type="curve" smooth="yes"/>
      <point x="1641" y="626"/>
      <point x="1695" y="473"/>
      <point x="1695" y="344" type="curve" smooth="yes"/>
      <point x="1695" y="217"/>
      <point x="1643" y="61"/>
    </contour>
    <contour>
      <point x="1484" y="-30" type="curve" smooth="yes"/>
      <point x="1692" y="-30"/>
      <point x="1811" y="146"/>
      <point x="1811" y="344" type="curve" smooth="yes"/>
      <point x="1811" y="539"/>
      <point x="1696" y="716"/>
      <point x="1484" y="716" type="curve" smooth="yes"/>
      <point x="1278" y="716"/>
      <point x="1157" y="541"/>
      <point x="1157" y="344" type="curve" smooth="yes"/>
      <point x="1157" y="149"/>
      <point x="1275" y="-30"/>
    </contour>
  </outline>
</glyph>
<glyph name="ampersand" format="1">
  <advance width="1493"/>
  <unicode hex="0026"/>
  <outline>
    <contour>
      <point x="666" y="-30" type="curve" smooth="yes"/>
      <point x="847" y="-30"/>
      <point x="995" y="47"/>
      <point x="1124" y="196" type="curve"/>
      <point x="1274" y="27" type="line"/>
      <point x="1291" y="6"/>
      <point x="1313" y="-4"/>
      <point x="1332" y="-4" type="curve" smooth="yes"/>
      <point x="1368" y="-4"/>
      <point x="1400" y="28"/>
      <point x="1400" y="67" type="curve" smooth="yes"/>
      <point x="1400" y="88"/>
      <point x="1389" y="99"/>
      <point x="1372" y="120" type="curve"/>
      <point x="1205" y="302" type="line"/>
      <point x="1336" y="528"/>
      <point x="1377" y="760"/>
      <point x="1374" y="853" type="curve" smooth="yes"/>
      <point x="1373" y="897"/>
      <point x="1340" y="918"/>
      <point x="1307" y="918" type="curve" smooth="yes"/>
      <point x="1275" y="918"/>
      <point x="1249" y="893"/>
      <point x="1248" y="850" type="curve"/>
      <point x="1248" y="697"/>
      <point x="1179" y="521"/>
      <point x="1121" y="388" type="curve"/>
      <point x="677" y="860" type="line"/>
      <point x="809" y="962"/>
      <point x="959" y="1073"/>
      <point x="959" y="1248" type="curve" smooth="yes"/>
      <point x="959" y="1434"/>
      <point x="870" y="1511"/>
      <point x="654" y="1513" type="curve" smooth="yes"/>
      <point x="444" y="1514"/>
      <point x="288" y="1428"/>
      <point x="288" y="1242" type="curve" smooth="yes"/>
      <point x="288" y="1098"/>
      <point x="402" y="971"/>
      <point x="494" y="868" type="curve"/>
      <point x="313" y="771"/>
      <point x="116" y="635"/>
      <point x="116" y="409" type="curve" smooth="yes"/>
      <point x="116" y="135"/>
      <point x="331" y="-30"/>
    </contour>
    <contour>
      <point x="646" y="82" type="curve" smooth="yes"/>
      <point x="441" y="82"/>
      <point x="255" y="215"/>
      <point x="255" y="433" type="curve" smooth="yes"/>
      <point x="255" y="557"/>
      <point x="382" y="684"/>
      <point x="576" y="788" type="curve"/>
      <point x="1052" y="281" type="line"/>
      <point x="920" y="152"/>
      <point x="813" y="82"/>
    </contour>
    <contour>
      <point x="597" y="937" type="curve"/>
      <point x="527" y="1014"/>
      <point x="436" y="1130"/>
      <point x="436" y="1236" type="curve" smooth="yes"/>
      <point x="436" y="1344"/>
      <point x="526" y="1384"/>
      <point x="624" y="1384" type="curve" smooth="yes"/>
      <point x="716" y="1384"/>
      <point x="806" y="1338"/>
      <point x="806" y="1236" type="curve" smooth="yes"/>
      <point x="806" y="1107"/>
      <point x="685" y="1020"/>
    </contour>
  </outline>
</glyph>
<glyph name="parenleft" format="1">
  <advance width="573"/>
  <unicode hex="0028"/>
  <outline>
    <contour>
      <point x="416" y="-212" type="curve" smooth="yes"/>
      <point x="441" y="-212"/>
      <point x="467" y="-193"/>
      <point x="467" y="-166" type="curve" smooth="yes"/>
      <point x="467" y="-159"/>
      <point x="466" y="-154"/>
      <point x="465" y="-152" type="curve" smooth="yes"/>
      <point x="364" y="116"/>
      <point x="303" y="385"/>
      <point x="303" y="640" type="curve" smooth="yes"/>
      <point x="303" y="894"/>
      <point x="365" y="1165"/>
      <point x="465" y="1432" type="curve" smooth="yes"/>
      <point x="468" y="1437"/>
      <point x="467" y="1441"/>
      <point x="467" y="1445" type="curve" smooth="yes"/>
      <point x="467" y="1473"/>
      <point x="441" y="1494"/>
      <point x="416" y="1494" type="curve" smooth="yes"/>
      <point x="401" y="1494"/>
      <point x="382" y="1491"/>
      <point x="373" y="1472" type="curve" smooth="yes"/>
      <point x="261" y="1207"/>
      <point x="156" y="925"/>
      <point x="156" y="639" type="curve" smooth="yes"/>
      <point x="156" y="358"/>
      <point x="258" y="83"/>
      <point x="367" y="-174" type="curve"/>
      <point x="380" y="-201"/>
      <point x="396" y="-212"/>
    </contour>
  </outline>
</glyph>
<glyph name="parenright" format="1">
  <advance width="573"/>
  <unicode hex="0029"/>
  <outline>
    <contour>
      <point x="157" y="-212" type="curve" smooth="yes"/>
      <point x="177" y="-212"/>
      <point x="194" y="-201"/>
      <point x="206" y="-174" type="curve"/>
      <point x="316" y="84"/>
      <point x="417" y="359"/>
      <point x="417" y="640" type="curve" smooth="yes"/>
      <point x="417" y="926"/>
      <point x="313" y="1207"/>
      <point x="200" y="1472" type="curve"/>
      <point x="190" y="1491"/>
      <point x="173" y="1492"/>
      <point x="158" y="1492" type="curve" smooth="yes"/>
      <point x="133" y="1492"/>
      <point x="105" y="1473"/>
      <point x="105" y="1445" type="curve" smooth="yes"/>
      <point x="105" y="1441"/>
      <point x="106" y="1437"/>
      <point x="108" y="1432" type="curve" smooth="yes"/>
      <point x="209" y="1164"/>
      <point x="270" y="894"/>
      <point x="270" y="640" type="curve" smooth="yes"/>
      <point x="270" y="386"/>
      <point x="209" y="117"/>
      <point x="109" y="-152" type="curve" smooth="yes"/>
      <point x="106" y="-158"/>
      <point x="106" y="-162"/>
      <point x="106" y="-166" type="curve" smooth="yes"/>
      <point x="106" y="-193"/>
      <point x="132" y="-212"/>
    </contour>
  </outline>
</glyph>
<glyph name="asterisk" format="1">
  <advance width="1134"/>
  <unicode hex="002A"/>
  <outline>
    <contour>
      <point x="440" y="752" type="curve" smooth="yes"/>
      <point x="566" y="978" type="line"/>
      <point x="692" y="752" type="line" smooth="yes"/>
      <point x="734" y="674"/>
      <point x="828" y="756"/>
      <point x="800" y="808" type="curve" smooth="yes"/>
      <point x="663" y="1031" type="line"/>
      <point x="922" y="1021" type="line" smooth="yes"/>
      <point x="1006" y="1021"/>
      <point x="1006" y="1140"/>
      <point x="922" y="1140" type="curve" smooth="yes"/>
      <point x="665" y="1130" type="line"/>
      <point x="801" y="1349" type="line"/>
      <point x="831" y="1405"/>
      <point x="748" y="1488"/>
      <point x="693" y="1409" type="curve" smooth="yes"/>
      <point x="566" y="1178" type="line"/>
      <point x="439" y="1407" type="line" smooth="yes"/>
      <point x="393" y="1486"/>
      <point x="296" y="1407"/>
      <point x="330" y="1351" type="curve" smooth="yes"/>
      <point x="467" y="1130" type="line"/>
      <point x="212" y="1140" type="line" smooth="yes"/>
      <point x="128" y="1140"/>
      <point x="129" y="1021"/>
      <point x="212" y="1021" type="curve" smooth="yes"/>
      <point x="470" y="1031" type="line"/>
      <point x="333" y="812" type="line" smooth="yes"/>
      <point x="298" y="757"/>
      <point x="397" y="677"/>
    </contour>
  </outline>
</glyph>
<glyph name="plus" format="1">
  <advance width="1351"/>
  <unicode hex="002B"/>
  <outline>
    <contour>
      <point x="675" y="4" type="curve" smooth="yes"/>
      <point x="703" y="4"/>
      <point x="738" y="25"/>
      <point x="738" y="58" type="curve" smooth="yes"/>
      <point x="738" y="434" type="line"/>
      <point x="1130" y="434" type="line" smooth="yes"/>
      <point x="1163" y="434"/>
      <point x="1188" y="465"/>
      <point x="1188" y="494" type="curve" smooth="yes"/>
      <point x="1188" y="524"/>
      <point x="1166" y="554"/>
      <point x="1130" y="554" type="curve" smooth="yes"/>
      <point x="738" y="554" type="line"/>
      <point x="738" y="933" type="line" smooth="yes"/>
      <point x="738" y="966"/>
      <point x="705" y="988"/>
      <point x="675" y="988" type="curve" smooth="yes"/>
      <point x="645" y="988"/>
      <point x="612" y="968"/>
      <point x="612" y="933" type="curve" smooth="yes"/>
      <point x="612" y="554" type="line"/>
      <point x="220" y="554" type="line" smooth="yes"/>
      <point x="188" y="554"/>
      <point x="163" y="527"/>
      <point x="163" y="494" type="curve" smooth="yes"/>
      <point x="163" y="467"/>
      <point x="185" y="434"/>
      <point x="220" y="434" type="curve" smooth="yes"/>
      <point x="612" y="434" type="line"/>
      <point x="612" y="58" type="line" smooth="yes"/>
      <point x="612" y="27"/>
      <point x="642" y="4"/>
    </contour>
  </outline>
</glyph>
<glyph name="hyphen" format="1">
  <advance width="715"/>
  <unicode hex="002D"/>
  <outline>
    <contour>
      <point x="106" y="479" type="curve" smooth="yes"/>
      <point x="610" y="479" type="line" smooth="yes"/>
      <point x="652" y="479"/>
      <point x="674" y="494"/>
      <point x="674" y="524" type="curve" smooth="yes"/>
      <point x="674" y="556"/>
      <point x="651" y="573"/>
      <point x="610" y="573" type="curve" smooth="yes"/>
      <point x="106" y="573" type="line" smooth="yes"/>
      <point x="65" y="573"/>
      <point x="41" y="556"/>
      <point x="41" y="524" type="curve" smooth="yes"/>
      <point x="41" y="494"/>
      <point x="65" y="479"/>
    </contour>
  </outline>
</glyph>
<glyph name="period" format="1">
  <advance width="571"/>
  <unicode hex="002E"/>
  <outline>
    <contour>
      <point x="286" y="0" type="curve" smooth="yes"/>
      <point x="348" y="0"/>
      <point x="380" y="43"/>
      <point x="380" y="85" type="curve" smooth="yes"/>
      <point x="380" y="123"/>
      <point x="350" y="168"/>
      <point x="286" y="168" type="curve" smooth="yes"/>
      <point x="223" y="168"/>
      <point x="190" y="125"/>
      <point x="190" y="85" type="curve" smooth="yes"/>
      <point x="190" y="43"/>
      <point x="221" y="0"/>
    </contour>
  </outline>
</glyph>
<glyph name="slash" format="1">
  <advance width="730"/>
  <unicode hex="002F"/>
  <outline>
    <contour>
      <point x="117" y="-187" type="curve" smooth="yes"/>
      <point x="143" y="-187"/>
      <point x="168" y="-174"/>
      <point x="179" y="-141" type="curve"/>
      <point x="670" y="1337" type="line" smooth="yes"/>
      <point x="673" y="1348"/>
      <point x="675" y="1358"/>
      <point x="675" y="1364" type="curve" smooth="yes"/>
      <point x="675" y="1401"/>
      <point x="643" y="1422"/>
      <point x="610" y="1422" type="curve" smooth="yes"/>
      <point x="581" y="1422"/>
      <point x="556" y="1408"/>
      <point x="546" y="1376" type="curve" smooth="yes"/>
      <point x="59" y="-103" type="line" smooth="yes"/>
      <point x="57" y="-114"/>
      <point x="54" y="-123"/>
      <point x="54" y="-129" type="curve" smooth="yes"/>
      <point x="54" y="-166"/>
      <point x="85" y="-187"/>
    </contour>
  </outline>
</glyph>
<glyph name="six" format="1">
  <advance width="1138"/>
  <unicode hex="0036"/>
  <outline>
    <contour>
      <point x="591" y="-22" type="curve" smooth="yes"/>
      <point x="872" y="-22"/>
      <point x="1042" y="185"/>
      <point x="1042" y="447" type="curve" smooth="yes"/>
      <point x="1042" y="709"/>
      <point x="889" y="899"/>
      <point x="610" y="901" type="curve" smooth="yes"/>
      <point x="398" y="902"/>
      <point x="264" y="749"/>
      <point x="243" y="635" type="curve" smooth="yes"/>
      <point x="243" y="1020"/>
      <point x="300" y="1307"/>
      <point x="647" y="1307" type="curve" smooth="yes"/>
      <point x="719" y="1307"/>
      <point x="807" y="1290"/>
      <point x="896" y="1245" type="curve" smooth="yes"/>
      <point x="964" y="1209"/>
      <point x="1010" y="1311"/>
      <point x="950" y="1345" type="curve" smooth="yes"/>
      <point x="865" y="1388"/>
      <point x="760" y="1421"/>
      <point x="648" y="1421" type="curve" smooth="yes"/>
      <point x="134" y="1421"/>
      <point x="98" y="904"/>
      <point x="98" y="615" type="curve" smooth="yes"/>
      <point x="98" y="299"/>
      <point x="195" y="-22"/>
    </contour>
    <contour>
      <point x="582" y="90" type="curve" smooth="yes"/>
      <point x="353" y="90"/>
      <point x="259" y="277"/>
      <point x="259" y="448" type="curve" smooth="yes"/>
      <point x="259" y="649"/>
      <point x="380" y="797"/>
      <point x="601" y="798" type="curve" smooth="yes"/>
      <point x="811" y="799"/>
      <point x="903" y="631"/>
      <point x="903" y="448" type="curve" smooth="yes"/>
      <point x="903" y="254"/>
      <point x="798" y="90"/>
    </contour>
  </outline>
</glyph>
<glyph name="seven" format="1">
  <advance width="1128"/>
  <unicode hex="0037"/>
  <outline>
    <contour>
      <point x="387" y="0" type="curve" smooth="yes"/>
      <point x="411" y="0"/>
      <point x="430" y="9"/>
      <point x="441" y="34" type="curve" smooth="yes"/>
      <point x="976" y="1288" type="line" smooth="yes"/>
      <point x="983" y="1301"/>
      <point x="984" y="1320"/>
      <point x="984" y="1337" type="curve" smooth="yes"/>
      <point x="984" y="1377"/>
      <point x="953" y="1402"/>
      <point x="907" y="1402" type="curve" smooth="yes"/>
      <point x="145" y="1402" type="line" smooth="yes"/>
      <point x="106" y="1402"/>
      <point x="87" y="1379"/>
      <point x="87" y="1351" type="curve" smooth="yes"/>
      <point x="87" y="1324"/>
      <point x="106" y="1302"/>
      <point x="145" y="1302" type="curve" smooth="yes"/>
      <point x="856" y="1302" type="line"/>
      <point x="330" y="83" type="line" smooth="yes"/>
      <point x="326" y="75"/>
      <point x="326" y="68"/>
      <point x="325" y="61" type="curve"/>
      <point x="325" y="25"/>
      <point x="352" y="0"/>
    </contour>
  </outline>
</glyph>
<glyph name="equal" format="1">
  <advance width="1356"/>
  <unicode hex="003D"/>
  <outline>
    <contour>
      <point x="226" y="248" type="curve" smooth="yes"/>
      <point x="1142" y="248" type="line" smooth="yes"/>
      <point x="1172" y="248"/>
      <point x="1189" y="280"/>
      <point x="1189" y="304" type="curve" smooth="yes"/>
      <point x="1189" y="330"/>
      <point x="1172" y="361"/>
      <point x="1136" y="361" type="curve" smooth="yes"/>
      <point x="214" y="361" type="line" smooth="yes"/>
      <point x="185" y="361"/>
      <point x="166" y="331"/>
      <point x="166" y="304" type="curve" smooth="yes"/>
      <point x="166" y="275"/>
      <point x="191" y="248"/>
    </contour>
    <contour>
      <point x="226" y="624" type="curve" smooth="yes"/>
      <point x="1142" y="624" type="line" smooth="yes"/>
      <point x="1171" y="624"/>
      <point x="1189" y="658"/>
      <point x="1189" y="681" type="curve" smooth="yes"/>
      <point x="1189" y="706"/>
      <point x="1174" y="739"/>
      <point x="1142" y="739" type="curve" smooth="yes"/>
      <point x="214" y="739" type="line" smooth="yes"/>
      <point x="185" y="739"/>
      <point x="166" y="709"/>
      <point x="166" y="681" type="curve" smooth="yes"/>
      <point x="166" y="652"/>
      <point x="192" y="624"/>
    </contour>
  </outline>
</glyph>
<glyph name="greater" format="1">
  <advance width="1351"/>
  <unicode hex="003E"/>
  <outline>
    <contour>
      <point x="237" y="33" type="curve" smooth="yes"/>
      <point x="1148" y="443" type="line" smooth="yes"/>
      <point x="1195" y="464"/>
      <point x="1199" y="518"/>
      <point x="1152" y="539" type="curve" smooth="yes"/>
      <point x="241" y="929" type="line" smooth="yes"/>
      <point x="187" y="953"/>
      <point x="137" y="873"/>
      <point x="198" y="847" type="curve" smooth="yes"/>
      <point x="1031" y="493" type="line"/>
      <point x="195" y="118" type="line" smooth="yes"/>
      <point x="151" y="98"/>
      <point x="182" y="9"/>
    </contour>
  </outline>
</glyph>
<glyph name="question" format="1">
  <advance width="1022"/>
  <unicode hex="003F"/>
  <outline>
    <contour>
      <point x="358" y="424" type="line"/>
      <point x="355" y="355"/>
      <point x="473" y="345"/>
      <point x="474" y="415" type="curve"/>
      <point x="473" y="546" type="line"/>
      <point x="474" y="711"/>
      <point x="865" y="811"/>
      <point x="865" y="1089" type="curve" smooth="yes"/>
      <point x="865" y="1333"/>
      <point x="693" y="1424"/>
      <point x="487" y="1424" type="curve" smooth="yes"/>
      <point x="398" y="1424"/>
      <point x="304" y="1406"/>
      <point x="215" y="1384" type="curve" smooth="yes"/>
      <point x="179" y="1376"/>
      <point x="165" y="1350"/>
      <point x="165" y="1325" type="curve" smooth="yes"/>
      <point x="165" y="1300"/>
      <point x="182" y="1267"/>
      <point x="213" y="1267" type="curve" smooth="yes"/>
      <point x="249" y="1267"/>
      <point x="434" y="1309"/>
      <point x="459" y="1309" type="curve" smooth="yes"/>
      <point x="603" y="1309"/>
      <point x="746" y="1280"/>
      <point x="746" y="1082" type="curve" smooth="yes"/>
      <point x="746" y="820"/>
      <point x="374" y="774"/>
      <point x="360" y="579" type="curve" smooth="yes"/>
    </contour>
    <contour>
      <point x="423" y="3" type="curve" smooth="yes"/>
      <point x="483" y="3"/>
      <point x="512" y="43"/>
      <point x="512" y="82" type="curve" smooth="yes"/>
      <point x="512" y="117"/>
      <point x="486" y="158"/>
      <point x="423" y="158" type="curve" smooth="yes"/>
      <point x="363" y="158"/>
      <point x="334" y="121"/>
      <point x="334" y="82" type="curve" smooth="yes"/>
      <point x="334" y="43"/>
      <point x="362" y="3"/>
    </contour>
  </outline>
</glyph>
<glyph name="A" format="1">
  <advance width="1385"/>
  <unicode hex="0041"/>
  <outline>
    <contour>
      <point x="691" y="1438" type="move" name="top"/>
    </contour>
    <contour>
      <point x="1266" y="19" type="move" name="ogonek"/>
    </contour>
    <contour>
      <point x="178" y="41" type="curve" smooth="yes"/>
      <point x="689" y="1318" type="line"/>
      <point x="689" y="1422" type="line"/>
      <point x="632" y="1422"/>
      <point x="601" y="1402"/>
      <point x="561" y="1300" type="curve" smooth="yes"/>
      <point x="65" y="85" type="line" smooth="yes"/>
      <point x="30" y="2"/>
      <point x="143" y="-42"/>
    </contour>
    <contour>
      <point x="1201" y="41" type="line"/>
      <point x="1236" y="-42"/>
      <point x="1349" y="2"/>
      <point x="1314" y="85" type="curve" smooth="yes"/>
      <point x="818" y="1300" type="line" smooth="yes"/>
      <point x="777" y="1402"/>
      <point x="747" y="1422"/>
      <point x="689" y="1422" type="curve"/>
      <point x="689" y="1318" type="line"/>
    </contour>
    <contour>
      <point x="270" y="402" type="line"/>
      <point x="1123" y="402" type="line"/>
      <point x="1086" y="496" type="line"/>
      <point x="301" y="496" type="line"/>
    </contour>
  </outline>
</glyph>
<glyph name="I" format="1">
  <advance width="574"/>
  <unicode hex="0049"/>
  <outline>
    <contour>
      <point x="299" y="1438" type="move" name="top"/>
    </contour>
    <contour>
      <point x="280" y="23" type="move" name="ogonek"/>
    </contour>
    <contour>
      <point x="287" y="-1" type="curve" smooth="yes"/>
      <point x="323" y="-1"/>
      <point x="360" y="20"/>
      <point x="360" y="66" type="curve" smooth="yes"/>
      <point x="360" y="1353" type="line" smooth="yes"/>
      <point x="360" y="1398"/>
      <point x="324" y="1420"/>
      <point x="290" y="1420" type="curve" smooth="yes"/>
      <point x="253" y="1420"/>
      <point x="217" y="1397"/>
      <point x="217" y="1353" type="curve" smooth="yes"/>
      <point x="217" y="66" type="line" smooth="yes"/>
      <point x="217" y="21"/>
      <point x="252" y="-1"/>
    </contour>
  </outline>
</glyph>
<glyph name="L" format="1">
  <advance width="1075"/>
  <unicode hex="004C"/>
  <outline>
    <contour>
      <point x="234" y="1462" type="move" name="top"/>
    </contour>
    <contour>
      <point x="556" y="962" type="move" name="caron.alt"/>
    </contour>
    <contour>
      <point x="647" y="0" type="move" name="bot"/>
    </contour>
    <contour>
      <point x="243" y="672" type="move" name="mid"/>
    </contour>
    <contour>
      <point x="244" y="0" type="curve" smooth="yes"/>
      <point x="993" y="0" type="line" smooth="yes"/>
      <point x="1031" y="0"/>
      <point x="1051" y="22"/>
      <point x="1051" y="49" type="curve" smooth="yes"/>
      <point x="1051" y="78"/>
      <point x="1034" y="99"/>
      <point x="993" y="99" type="curve" smooth="yes"/>
      <point x="306" y="99" type="line"/>
      <point x="306" y="1363" type="line" smooth="yes"/>
      <point x="306" y="1401"/>
      <point x="275" y="1420"/>
      <point x="245" y="1420" type="curve" smooth="yes"/>
      <point x="213" y="1420"/>
      <point x="181" y="1399"/>
      <point x="181" y="1363" type="curve" smooth="yes"/>
      <point x="181" y="59" type="line" smooth="yes"/>
      <point x="181" y="25"/>
      <point x="210" y="0"/>
    </contour>
  </outline>
</glyph>
<glyph name="M" format="1">
  <advance width="1889"/>
  <unicode hex="004D"/>
  <outline>
    <contour>
      <point x="979" y="1438" type="move" name="top"/>
    </contour>
    <contour>
      <point x="949" y="27" type="curve"/>
      <point x="949" y="184" type="line"/>
      <point x="409" y="1325" type="line" smooth="yes"/>
      <point x="333" y="1485"/>
      <point x="184" y="1412"/>
      <point x="184" y="1309" type="curve" smooth="yes"/>
      <point x="184" y="52" type="line" smooth="yes"/>
      <point x="184" y="-23"/>
      <point x="314" y="-22"/>
      <point x="314" y="52" type="curve" smooth="yes"/>
      <point x="314" y="1250" type="line"/>
      <point x="860" y="92" type="line" smooth="yes"/>
      <point x="881" y="47"/>
      <point x="916" y="27"/>
    </contour>
    <contour>
      <point x="948" y="27" type="line"/>
      <point x="981" y="27"/>
      <point x="1016" y="47"/>
      <point x="1037" y="92" type="curve" smooth="yes"/>
      <point x="1583" y="1250" type="line"/>
      <point x="1583" y="52" type="line" smooth="yes"/>
      <point x="1583" y="-22"/>
      <point x="1713" y="-23"/>
      <point x="1713" y="52" type="curve" smooth="yes"/>
      <point x="1713" y="1309" type="line" smooth="yes"/>
      <point x="1713" y="1412"/>
      <point x="1565" y="1485"/>
      <point x="1488" y="1325" type="curve" smooth="yes"/>
      <point x="948" y="184" type="line"/>
    </contour>
  </outline>
</glyph>
<glyph name="R" format="1">
  <advance width="1324"/>
  <unicode hex="0052"/>
  <outline>
    <contour>
      <point x="687" y="1438" type="move" name="top"/>
    </contour>
    <contour>
      <point x="678" y="0" type="move" name="bot"/>
    </contour>
    <contour>
      <point x="250" y="-1" type="curve" smooth="yes"/>
      <point x="286" y="-1"/>
      <point x="323" y="20"/>
      <point x="323" y="66" type="curve" smooth="yes"/>
      <point x="323" y="679" type="line"/>
      <point x="711" y="679" type="line" smooth="yes"/>
      <point x="928" y="678"/>
      <point x="969" y="636"/>
      <point x="1000" y="360" type="curve" smooth="yes"/>
      <point x="1034" y="67" type="line" smooth="yes"/>
      <point x="1039" y="21"/>
      <point x="1077" y="-1"/>
      <point x="1113" y="-1" type="curve" smooth="yes"/>
      <point x="1154" y="-1"/>
      <point x="1182" y="33"/>
      <point x="1176" y="81" type="curve" smooth="yes"/>
      <point x="1135" y="436" type="line" smooth="yes"/>
      <point x="1115" y="611"/>
      <point x="1043" y="711"/>
      <point x="893" y="740" type="curve"/>
      <point x="893" y="744" type="line"/>
      <point x="1085" y="788"/>
      <point x="1171" y="913"/>
      <point x="1171" y="1068" type="curve" smooth="yes"/>
      <point x="1171" y="1372"/>
      <point x="906" y="1421"/>
      <point x="671" y="1421" type="curve" smooth="yes"/>
      <point x="251" y="1421" type="line" smooth="yes"/>
      <point x="212" y="1421"/>
      <point x="180" y="1390"/>
      <point x="180" y="1353" type="curve" smooth="yes"/>
      <point x="180" y="66" type="line" smooth="yes"/>
      <point x="180" y="22"/>
      <point x="215" y="-1"/>
    </contour>
    <contour>
      <point x="323" y="789" type="line"/>
      <point x="323" y="1308" type="line"/>
      <point x="689" y="1308" type="line" smooth="yes"/>
      <point x="835" y="1308"/>
      <point x="1032" y="1279"/>
      <point x="1032" y="1064" type="curve" smooth="yes"/>
      <point x="1032" y="846"/>
      <point x="870" y="789"/>
      <point x="684" y="789" type="curve" smooth="yes"/>
    </contour>
  </outline>
</glyph>
<glyph name="T" format="1">
  <advance width="1133"/>
  <unicode hex="0054"/>
  <outline>
    <contour>
      <point x="586" y="1438" type="move" name="top"/>
    </contour>
    <contour>
      <point x="572" y="14" type="move" name="bot"/>
    </contour>
    <contour>
      <point x="578" y="763" type="move" name="mid"/>
    </contour>
    <contour>
      <point x="571" y="1" type="curve" smooth="yes"/>
      <point x="601" y="1"/>
      <point x="634" y="21"/>
      <point x="634" y="59" type="curve" smooth="yes"/>
      <point x="634" y="1320" type="line"/>
      <point x="1046" y="1320" type="line" smooth="yes"/>
      <point x="1084" y="1320"/>
      <point x="1105" y="1341"/>
      <point x="1105" y="1368" type="curve" smooth="yes"/>
      <point x="1105" y="1397"/>
      <point x="1088" y="1419"/>
      <point x="1046" y="1419" type="curve" smooth="yes"/>
      <point x="85" y="1419" type="line" smooth="yes"/>
      <point x="47" y="1419"/>
      <point x="28" y="1397"/>
      <point x="28" y="1369" type="curve" smooth="yes"/>
      <point x="28" y="1342"/>
      <point x="48" y="1320"/>
      <point x="85" y="1320" type="curve" smooth="yes"/>
      <point x="509" y="1320" type="line"/>
      <point x="509" y="59" type="line" smooth="yes"/>
      <point x="509" y="21"/>
      <point x="539" y="1"/>
    </contour>
  </outline>
</glyph>
<glyph name="V" format="1">
  <advance width="1259"/>
  <unicode hex="0056"/>
  <outline>
    <contour>
      <point x="637" y="-1" type="curve"/>
      <point x="637" y="163" type="line"/>
      <point x="169" y="1373" type="line" smooth="yes"/>
      <point x="134" y="1460"/>
      <point x="10" y="1402"/>
      <point x="41" y="1328" type="curve" smooth="yes"/>
      <point x="522" y="95" type="line" smooth="yes"/>
      <point x="545" y="40"/>
      <point x="592" y="-1"/>
    </contour>
    <contour>
      <point x="637" y="-1" type="line"/>
      <point x="681" y="-1"/>
      <point x="728" y="40"/>
      <point x="751" y="95" type="curve" smooth="yes"/>
      <point x="1233" y="1328" type="line" smooth="yes"/>
      <point x="1264" y="1402"/>
      <point x="1139" y="1460"/>
      <point x="1104" y="1373" type="curve" smooth="yes"/>
      <point x="637" y="163" type="line"/>
    </contour>
  </outline>
</glyph>
<glyph name="W" format="1">
  <advance width="2148"/>
  <unicode hex="0057"/>
  <outline>
    <contour>
      <point x="1067" y="1438" type="move" name="top"/>
    </contour>
    <contour>
      <point x="436" y="76" type="line"/>
      <point x="468" y="-42"/>
      <point x="610" y="-36"/>
      <point x="652" y="78" type="curve" smooth="yes"/>
      <point x="1070" y="1259" type="line"/>
      <point x="1070" y="1421" type="line"/>
      <point x="1024" y="1421"/>
      <point x="992" y="1397"/>
      <point x="954" y="1289" type="curve" smooth="yes"/>
      <point x="550" y="133" type="line"/>
      <point x="222" y="1376" type="line" smooth="yes"/>
      <point x="199" y="1461"/>
      <point x="62" y="1439"/>
      <point x="91" y="1333" type="curve" smooth="yes"/>
    </contour>
    <contour>
      <point x="1704" y="76" type="curve" smooth="yes"/>
      <point x="2048" y="1333" type="line" smooth="yes"/>
      <point x="2078" y="1439"/>
      <point x="1941" y="1461"/>
      <point x="1918" y="1376" type="curve" smooth="yes"/>
      <point x="1590" y="133" type="line"/>
      <point x="1185" y="1289" type="line" smooth="yes"/>
      <point x="1143" y="1409"/>
      <point x="1116" y="1421"/>
      <point x="1070" y="1421" type="curve"/>
      <point x="1070" y="1259" type="line"/>
      <point x="1487" y="78" type="line" smooth="yes"/>
      <point x="1532" y="-47"/>
      <point x="1674" y="-30"/>
    </contour>
  </outline>
</glyph>
<glyph name="Y" format="1">
  <advance width="1268"/>
  <unicode hex="0059"/>
  <outline>
    <contour>
      <point x="668" y="1438" type="move" name="top"/>
    </contour>
    <contour>
      <point x="567" y="67" type="line"/>
      <point x="567" y="-21"/>
      <point x="710" y="-21"/>
      <point x="710" y="67" type="curve" smooth="yes"/>
      <point x="710" y="613" type="line"/>
      <point x="1184" y="1323" type="line" smooth="yes"/>
      <point x="1227" y="1387"/>
      <point x="1135" y="1466"/>
      <point x="1079" y="1382" type="curve" smooth="yes"/>
      <point x="647" y="723" type="line"/>
      <point x="209" y="1389" type="line" smooth="yes"/>
      <point x="162" y="1458"/>
      <point x="40" y="1396"/>
      <point x="93" y="1317" type="curve" smooth="yes"/>
      <point x="567" y="610" type="line"/>
    </contour>
  </outline>
</glyph>
<glyph name="backslash" format="1">
  <advance width="565"/>
  <unicode hex="005C"/>
  <outline>
    <contour>
      <point x="532" y="-116" type="curve" smooth="yes"/>
      <point x="563" y="-116"/>
      <point x="590" y="-96"/>
      <point x="590" y="-60" type="curve" smooth="yes"/>
      <point x="590" y="-51"/>
      <point x="589" y="-42"/>
      <point x="586" y="-35" type="curve"/>
      <point x="97" y="1453" type="line"/>
      <point x="87" y="1484"/>
      <point x="60" y="1497"/>
      <point x="37" y="1497" type="curve" smooth="yes"/>
      <point x="5" y="1497"/>
      <point x="-25" y="1476"/>
      <point x="-25" y="1441" type="curve" smooth="yes"/>
      <point x="-25" y="1435"/>
      <point x="-23" y="1428"/>
      <point x="-21" y="1417" type="curve" smooth="yes"/>
      <point x="473" y="-71" type="line" smooth="yes"/>
      <point x="482" y="-102"/>
      <point x="506" y="-116"/>
    </contour>
  </outline>
</glyph>
<glyph name="bracketright" format="1">
  <advance width="578"/>
  <unicode hex="005D"/>
  <outline>
    <contour>
      <point x="165" y="-192" type="curve"/>
      <point x="333" y="-192" type="line" smooth="yes"/>
      <point x="370" y="-192"/>
      <point x="403" y="-161"/>
      <point x="403" y="-124" type="curve" smooth="yes"/>
      <point x="403" y="1354" type="line" smooth="yes"/>
      <point x="403" y="1391"/>
      <point x="370" y="1421"/>
      <point x="333" y="1421" type="curve" smooth="yes"/>
      <point x="165" y="1421" type="line" smooth="yes"/>
      <point x="127" y="1421"/>
      <point x="112" y="1396"/>
      <point x="112" y="1370" type="curve" smooth="yes"/>
      <point x="112" y="1343"/>
      <point x="130" y="1317"/>
      <point x="165" y="1317" type="curve" smooth="yes"/>
      <point x="264" y="1317" type="line"/>
      <point x="264" y="-86" type="line"/>
      <point x="165" y="-86" type="line" smooth="yes"/>
      <point x="130" y="-86"/>
      <point x="112" y="-112"/>
      <point x="112" y="-138" type="curve" smooth="yes"/>
      <point x="112" y="-164"/>
      <point x="130" y="-193"/>
    </contour>
  </outline>
</glyph>
<glyph name="asciicircum" format="1">
  <advance width="1356"/>
  <unicode hex="005E"/>
  <outline>
    <contour>
      <point x="256" y="479" type="curve" smooth="yes"/>
      <point x="271" y="479"/>
      <point x="293" y="480"/>
      <point x="301" y="501" type="curve"/>
      <point x="670" y="1241" type="line"/>
      <point x="1037" y="501" type="line" smooth="yes"/>
      <point x="1046" y="481"/>
      <point x="1066" y="478"/>
      <point x="1082" y="478" type="curve" smooth="yes"/>
      <point x="1112" y="478"/>
      <point x="1144" y="503"/>
      <point x="1144" y="534" type="curve" smooth="yes"/>
      <point x="1144" y="537"/>
      <point x="1146" y="537"/>
      <point x="1145" y="541" type="curve"/>
      <point x="733" y="1337" type="line" smooth="yes"/>
      <point x="721" y="1358"/>
      <point x="694" y="1368"/>
      <point x="670" y="1368" type="curve" smooth="yes"/>
      <point x="652" y="1368"/>
      <point x="623" y="1362"/>
      <point x="609" y="1337" type="curve" smooth="yes"/>
      <point x="194" y="541" type="line"/>
      <point x="193" y="537"/>
      <point x="196" y="536"/>
      <point x="196" y="532" type="curve" smooth="yes"/>
      <point x="196" y="500"/>
      <point x="227" y="479"/>
    </contour>
  </outline>
</glyph>
<glyph name="underscore" format="1">
  <advance width="1024"/>
  <unicode hex="005F"/>
  <outline>
    <contour>
      <point x="53" y="-254" type="curve" smooth="yes"/>
      <point x="967" y="-254" type="line" smooth="yes"/>
      <point x="1005" y="-254"/>
      <point x="1023" y="-224"/>
      <point x="1023" y="-197" type="curve" smooth="yes"/>
      <point x="1023" y="-166"/>
      <point x="1005" y="-138"/>
      <point x="967" y="-138" type="curve" smooth="yes"/>
      <point x="53" y="-138" type="line" smooth="yes"/>
      <point x="17" y="-138"/>
      <point x="-1" y="-166"/>
      <point x="-1" y="-197" type="curve" smooth="yes"/>
      <point x="-1" y="-224"/>
      <point x="17" y="-254"/>
    </contour>
  </outline>
</glyph>
<glyph name="a" format="1">
  <advance width="1029"/>
  <unicode hex="0061"/>
  <outline>
    <contour>
      <point x="485" y="987" type="move" name="top"/>
    </contour>
    <contour>
      <point x="822" y="1" type="move" name="ogonek"/>
    </contour>
    <contour>
      <point x="419" y="-23" type="curve" smooth="yes"/>
      <point x="588" y="-23"/>
      <point x="688" y="64"/>
      <point x="753" y="201" type="curve"/>
      <point x="753" y="50" type="line" smooth="yes"/>
      <point x="753" y="-26"/>
      <point x="882" y="-14"/>
      <point x="882" y="54" type="curve" smooth="yes"/>
      <point x="882" y="683" type="line" smooth="yes"/>
      <point x="882" y="912"/>
      <point x="737" y="1013"/>
      <point x="507" y="1013" type="curve" smooth="yes"/>
      <point x="354" y="1013"/>
      <point x="232" y="981"/>
      <point x="134" y="917" type="curve" smooth="yes"/>
      <point x="92" y="886"/>
      <point x="141" y="815"/>
      <point x="188" y="843" type="curve" smooth="yes"/>
      <point x="281" y="888"/>
      <point x="363" y="923"/>
      <point x="505" y="923" type="curve" smooth="yes"/>
      <point x="649" y="923"/>
      <point x="755" y="857"/>
      <point x="755" y="697" type="curve" smooth="yes"/>
      <point x="755" y="563" type="line"/>
      <point x="222" y="563"/>
      <point x="66" y="508"/>
      <point x="66" y="265" type="curve" smooth="yes"/>
      <point x="66" y="76"/>
      <point x="212" y="-23"/>
    </contour>
    <contour>
      <point x="438" y="66" type="curve" smooth="yes"/>
      <point x="291" y="66"/>
      <point x="191" y="124"/>
      <point x="190" y="268" type="curve" smooth="yes"/>
      <point x="189" y="441"/>
      <point x="292" y="483"/>
      <point x="755" y="483" type="curve"/>
      <point x="755" y="449" type="line" smooth="yes"/>
      <point x="755" y="219"/>
      <point x="602" y="66"/>
    </contour>
  </outline>
</glyph>
<glyph name="b" format="1">
  <advance width="1168"/>
  <unicode hex="0062"/>
  <outline>
    <contour>
      <point x="652" y="-23" type="curve" smooth="yes"/>
      <point x="948" y="-23"/>
      <point x="1080" y="222"/>
      <point x="1080" y="500" type="curve" smooth="yes"/>
      <point x="1080" y="763"/>
      <point x="930" y="1013"/>
      <point x="636" y="1013" type="curve" smooth="yes"/>
      <point x="488" y="1013"/>
      <point x="351" y="934"/>
      <point x="297" y="797" type="curve"/>
      <point x="297" y="1360" type="line" smooth="yes"/>
      <point x="297" y="1400"/>
      <point x="264" y="1420"/>
      <point x="232" y="1420" type="curve" smooth="yes"/>
      <point x="200" y="1420"/>
      <point x="167" y="1400"/>
      <point x="167" y="1360" type="curve" smooth="yes"/>
      <point x="167" y="61" type="line" smooth="yes"/>
      <point x="167" y="22"/>
      <point x="197" y="4"/>
      <point x="230" y="4" type="curve" smooth="yes"/>
      <point x="288" y="4"/>
      <point x="297" y="41"/>
      <point x="297" y="61" type="curve" smooth="yes"/>
      <point x="297" y="194" type="line"/>
      <point x="362" y="49"/>
      <point x="502" y="-23"/>
    </contour>
    <contour>
      <point x="646" y="68" type="curve" smooth="yes"/>
      <point x="379" y="68"/>
      <point x="298" y="280"/>
      <point x="298" y="500" type="curve" smooth="yes"/>
      <point x="298" y="709"/>
      <point x="393" y="922"/>
      <point x="628" y="922" type="curve" smooth="yes"/>
      <point x="867" y="922"/>
      <point x="949" y="692"/>
      <point x="949" y="492" type="curve" smooth="yes"/>
      <point x="949" y="300"/>
      <point x="879" y="72"/>
    </contour>
  </outline>
</glyph>
<glyph name="g" format="1">
  <advance width="1151"/>
  <unicode hex="0067"/>
  <outline>
    <contour>
      <point x="521" y="987" type="move" name="top"/>
    </contour>
    <contour>
      <point x="547" y="-404" type="curve" smooth="yes"/>
      <point x="829" y="-404"/>
      <point x="998" y="-272"/>
      <point x="998" y="-8" type="curve" smooth="yes"/>
      <point x="998" y="928" type="line" smooth="yes"/>
      <point x="998" y="967"/>
      <point x="970" y="987"/>
      <point x="937" y="987" type="curve" smooth="yes"/>
      <point x="907" y="987"/>
      <point x="876" y="967"/>
      <point x="875" y="929" type="curve"/>
      <point x="875" y="784" type="line"/>
      <point x="819" y="925"/>
      <point x="700" y="1013"/>
      <point x="526" y="1013" type="curve" smooth="yes"/>
      <point x="235" y="1013"/>
      <point x="88" y="766"/>
      <point x="88" y="490" type="curve" smooth="yes"/>
      <point x="88" y="246"/>
      <point x="226" y="0"/>
      <point x="529" y="0" type="curve" smooth="yes"/>
      <point x="709" y="0"/>
      <point x="827" y="114"/>
      <point x="869" y="239" type="curve"/>
      <point x="869" y="0" type="line" smooth="yes"/>
      <point x="869" y="-200"/>
      <point x="779" y="-307"/>
      <point x="540" y="-307" type="curve" smooth="yes"/>
      <point x="407" y="-307"/>
      <point x="298" y="-271"/>
      <point x="248" y="-250" type="curve" smooth="yes"/>
      <point x="196" y="-232"/>
      <point x="154" y="-317"/>
      <point x="225" y="-346" type="curve" smooth="yes"/>
      <point x="282" y="-369"/>
      <point x="383" y="-404"/>
    </contour>
    <contour>
      <point x="529" y="90" type="curve"/>
      <point x="359" y="100"/>
      <point x="219" y="224"/>
      <point x="219" y="496" type="curve" smooth="yes"/>
      <point x="219" y="737"/>
      <point x="325" y="922"/>
      <point x="547" y="922" type="curve" smooth="yes"/>
      <point x="800" y="922"/>
      <point x="871" y="682"/>
      <point x="868" y="491" type="curve" smooth="yes"/>
      <point x="864" y="245"/>
      <point x="715" y="77"/>
    </contour>
  </outline>
</glyph>
<glyph name="h" format="1">
  <advance width="1133"/>
  <unicode hex="0068"/>
  <outline>
    <contour>
      <point x="231" y="0" type="curve" smooth="yes"/>
      <point x="263" y="0"/>
      <point x="297" y="20"/>
      <point x="297" y="61" type="curve" smooth="yes"/>
      <point x="297" y="581" type="line" smooth="yes"/>
      <point x="297" y="810"/>
      <point x="442" y="903"/>
      <point x="619" y="903" type="curve" smooth="yes"/>
      <point x="768" y="903"/>
      <point x="855" y="826"/>
      <point x="855" y="650" type="curve" smooth="yes"/>
      <point x="855" y="61" type="line" smooth="yes"/>
      <point x="855" y="20"/>
      <point x="887" y="0"/>
      <point x="919" y="0" type="curve" smooth="yes"/>
      <point x="951" y="0"/>
      <point x="986" y="20"/>
      <point x="986" y="61" type="curve" smooth="yes"/>
      <point x="986" y="634" type="line" smooth="yes"/>
      <point x="986" y="910"/>
      <point x="826" y="1013"/>
      <point x="633" y="1013" type="curve" smooth="yes"/>
      <point x="501" y="1013"/>
      <point x="347" y="946"/>
      <point x="297" y="807" type="curve"/>
      <point x="297" y="1362" type="line" smooth="yes"/>
      <point x="297" y="1401"/>
      <point x="265" y="1420"/>
      <point x="233" y="1420" type="curve" smooth="yes"/>
      <point x="201" y="1420"/>
      <point x="167" y="1400"/>
      <point x="167" y="1362" type="curve" smooth="yes"/>
      <point x="167" y="61" type="line" smooth="yes"/>
      <point x="167" y="20"/>
      <point x="198" y="0"/>
    </contour>
  </outline>
</glyph>
<glyph name="i" format="1">
  <advance width="487"/>
  <unicode hex="0069"/>
  <outline>
    <contour>
      <point x="249" y="0" type="curve" smooth="yes"/>
      <point x="278" y="0"/>
      <point x="309" y="21"/>
      <point x="309" y="60" type="curve" smooth="yes"/>
      <point x="309" y="927" type="line" smooth="yes"/>
      <point x="309" y="966"/>
      <point x="280" y="985"/>
      <point x="253" y="985" type="curve" smooth="yes"/>
      <point x="225" y="985"/>
      <point x="194" y="966"/>
      <point x="194" y="927" type="curve" smooth="yes"/>
      <point x="194" y="60" type="line" smooth="yes"/>
      <point x="194" y="17"/>
      <point x="221" y="0"/>
    </contour>
    <contour>
      <point x="250" y="1254" type="curve" smooth="yes"/>
      <point x="304" y="1254"/>
      <point x="341" y="1288"/>
      <point x="341" y="1338" type="curve" smooth="yes"/>
      <point x="341" y="1388"/>
      <point x="305" y="1422"/>
      <point x="251" y="1422" type="curve" smooth="yes"/>
      <point x="198" y="1422"/>
      <point x="161" y="1388"/>
      <point x="161" y="1338" type="curve" smooth="yes"/>
      <point x="161" y="1288"/>
      <point x="196" y="1254"/>
    </contour>
  </outline>
</glyph>
<glyph name="j" format="1">
  <advance width="487"/>
  <unicode hex="006A"/>
  <outline>
    <contour>
      <point x="23" y="-376" type="curve" smooth="yes"/>
      <point x="321" y="-376"/>
      <point x="324" y="-286"/>
      <point x="324" y="-41" type="curve" smooth="yes"/>
      <point x="324" y="921" type="line" smooth="yes"/>
      <point x="324" y="965"/>
      <point x="291" y="987"/>
      <point x="260" y="987" type="curve" smooth="yes"/>
      <point x="226" y="987"/>
      <point x="192" y="965"/>
      <point x="192" y="921" type="curve" smooth="yes"/>
      <point x="192" y="-84" type="line" smooth="yes"/>
      <point x="192" y="-253"/>
      <point x="173" y="-267"/>
      <point x="26" y="-267" type="curve" smooth="yes"/>
      <point x="-43" y="-267"/>
      <point x="-44" y="-376"/>
    </contour>
    <contour>
      <point x="256" y="1247" type="curve" smooth="yes"/>
      <point x="314" y="1247"/>
      <point x="353" y="1283"/>
      <point x="353" y="1337" type="curve" smooth="yes"/>
      <point x="353" y="1391"/>
      <point x="315" y="1427"/>
      <point x="257" y="1427" type="curve" smooth="yes"/>
      <point x="200" y="1427"/>
      <point x="161" y="1391"/>
      <point x="161" y="1337" type="curve" smooth="yes"/>
      <point x="161" y="1283"/>
      <point x="199" y="1247"/>
    </contour>
  </outline>
</glyph>
<glyph name="l" format="1">
  <advance width="486"/>
  <unicode hex="006C"/>
  <outline>
    <contour>
      <point x="343" y="1421" type="move" name="top"/>
    </contour>
    <contour>
      <point x="288" y="971" type="move" name="caron.alt"/>
    </contour>
    <contour>
      <point x="255" y="0" type="move" name="bot"/>
    </contour>
    <contour>
      <point x="254" y="0" type="curve" smooth="yes"/>
      <point x="286" y="0"/>
      <point x="321" y="23"/>
      <point x="321" y="67" type="curve" smooth="yes"/>
      <point x="321" y="1355" type="line" smooth="yes"/>
      <point x="321" y="1398"/>
      <point x="288" y="1420"/>
      <point x="257" y="1420" type="curve" smooth="yes"/>
      <point x="225" y="1420"/>
      <point x="191" y="1398"/>
      <point x="191" y="1355" type="curve" smooth="yes"/>
      <point x="191" y="67" type="line" smooth="yes"/>
      <point x="191" y="20"/>
      <point x="222" y="0"/>
    </contour>
  </outline>
</glyph>
<glyph name="m" format="1">
  <advance width="1827"/>
  <unicode hex="006D"/>
  <outline>
    <contour>
      <point x="940" y="976" type="move" name="top"/>
    </contour>
    <contour>
      <point x="231" y="0" type="curve" smooth="yes"/>
      <point x="265" y="0"/>
      <point x="298" y="19"/>
      <point x="298" y="60" type="curve" smooth="yes"/>
      <point x="298" y="581" type="line" smooth="yes"/>
      <point x="298" y="808"/>
      <point x="428" y="924"/>
      <point x="617" y="924" type="curve" smooth="yes"/>
      <point x="766" y="924"/>
      <point x="855" y="827"/>
      <point x="855" y="595" type="curve" smooth="yes"/>
      <point x="855" y="61" type="line" smooth="yes"/>
      <point x="855" y="20"/>
      <point x="887" y="0"/>
      <point x="920" y="0" type="curve" smooth="yes"/>
      <point x="952" y="0"/>
      <point x="986" y="20"/>
      <point x="986" y="61" type="curve" smooth="yes"/>
      <point x="986" y="595" type="line" smooth="yes"/>
      <point x="986" y="838"/>
      <point x="1141" y="924"/>
      <point x="1303" y="924" type="curve" smooth="yes"/>
      <point x="1457" y="924"/>
      <point x="1544" y="828"/>
      <point x="1544" y="646" type="curve" smooth="yes"/>
      <point x="1544" y="60" type="line" smooth="yes"/>
      <point x="1544" y="19"/>
      <point x="1575" y="0"/>
      <point x="1608" y="0" type="curve" smooth="yes"/>
      <point x="1641" y="0"/>
      <point x="1674" y="19"/>
      <point x="1674" y="60" type="curve" smooth="yes"/>
      <point x="1674" y="634" type="line" smooth="yes"/>
      <point x="1674" y="910"/>
      <point x="1503" y="1013"/>
      <point x="1323" y="1013" type="curve" smooth="yes"/>
      <point x="1137" y="1013"/>
      <point x="1005" y="935"/>
      <point x="954" y="768" type="curve"/>
      <point x="909" y="949"/>
      <point x="776" y="1013"/>
      <point x="626" y="1013" type="curve" smooth="yes"/>
      <point x="469" y="1013"/>
      <point x="343" y="927"/>
      <point x="298" y="807" type="curve"/>
      <point x="298" y="930" type="line" smooth="yes"/>
      <point x="298" y="968"/>
      <point x="263" y="987"/>
      <point x="233" y="987" type="curve" smooth="yes"/>
      <point x="201" y="987"/>
      <point x="167" y="967"/>
      <point x="167" y="929" type="curve" smooth="yes"/>
      <point x="167" y="60" type="line" smooth="yes"/>
      <point x="167" y="19"/>
      <point x="198" y="0"/>
    </contour>
  </outline>
</glyph>
<glyph name="q" format="1">
  <advance width="1168"/>
  <unicode hex="0071"/>
  <outline>
    <contour>
      <point x="936" y="-378" type="curve" smooth="yes"/>
      <point x="969" y="-378"/>
      <point x="1001" y="-358"/>
      <point x="1001" y="-318" type="curve" smooth="yes"/>
      <point x="1001" y="929" type="line" smooth="yes"/>
      <point x="1001" y="968"/>
      <point x="971" y="986"/>
      <point x="938" y="986" type="curve" smooth="yes"/>
      <point x="880" y="986"/>
      <point x="871" y="949"/>
      <point x="871" y="929" type="curve" smooth="yes"/>
      <point x="871" y="796" type="line"/>
      <point x="806" y="941"/>
      <point x="667" y="1013"/>
      <point x="516" y="1013" type="curve" smooth="yes"/>
      <point x="220" y="1013"/>
      <point x="88" y="768"/>
      <point x="88" y="490" type="curve" smooth="yes"/>
      <point x="88" y="227"/>
      <point x="238" y="-23"/>
      <point x="533" y="-23" type="curve" smooth="yes"/>
      <point x="680" y="-23"/>
      <point x="817" y="56"/>
      <point x="871" y="193" type="curve"/>
      <point x="871" y="-318" type="line" smooth="yes"/>
      <point x="871" y="-358"/>
      <point x="904" y="-378"/>
    </contour>
    <contour>
      <point x="540" y="68" type="curve" smooth="yes"/>
      <point x="301" y="68"/>
      <point x="219" y="298"/>
      <point x="219" y="499" type="curve" smooth="yes"/>
      <point x="219" y="690"/>
      <point x="289" y="918"/>
      <point x="522" y="922" type="curve" smooth="yes"/>
      <point x="790" y="922"/>
      <point x="870" y="710"/>
      <point x="870" y="490" type="curve" smooth="yes"/>
      <point x="870" y="281"/>
      <point x="776" y="68"/>
    </contour>
  </outline>
</glyph>
<glyph name="v" format="1">
  <advance width="1010"/>
  <unicode hex="0076"/>
  <outline>
    <contour>
      <point x="510" y="1" type="curve"/>
      <point x="510" y="140" type="line"/>
      <point x="174" y="944" type="line" smooth="yes"/>
      <point x="134" y="1040"/>
      <point x="32" y="956"/>
      <point x="55" y="903" type="curve" smooth="yes"/>
      <point x="399" y="102" type="line" smooth="yes"/>
      <point x="431" y="30"/>
      <point x="451" y="1"/>
    </contour>
    <contour>
      <point x="510" y="1" type="line"/>
      <point x="569" y="1"/>
      <point x="589" y="30"/>
      <point x="621" y="102" type="curve" smooth="yes"/>
      <point x="965" y="903" type="line" smooth="yes"/>
      <point x="988" y="956"/>
      <point x="886" y="1040"/>
      <point x="846" y="944" type="curve" smooth="yes"/>
      <point x="510" y="140" type="line"/>
    </contour>
  </outline>
</glyph>
<glyph name="x" format="1">
  <advance width="1031"/>
  <unicode hex="0078"/>
  <outline>
    <contour>
      <point x="159" y="0" type="curve" smooth="yes"/>
      <point x="177" y="0"/>
      <point x="191" y="8"/>
      <point x="203" y="23" type="curve"/>
      <point x="524" y="432" type="line"/>
      <point x="587" y="496" type="line"/>
      <point x="902" y="900" type="line" smooth="yes"/>
      <point x="910" y="910"/>
      <point x="914" y="921"/>
      <point x="914" y="933" type="curve" smooth="yes"/>
      <point x="914" y="962"/>
      <point x="885" y="987"/>
      <point x="855" y="987" type="curve" smooth="yes"/>
      <point x="839" y="987"/>
      <point x="821" y="980"/>
      <point x="809" y="963" type="curve"/>
      <point x="504" y="571" type="line"/>
      <point x="446" y="509" type="line"/>
      <point x="107" y="88" type="line" smooth="yes"/>
      <point x="100" y="80"/>
      <point x="96" y="69"/>
      <point x="96" y="59" type="curve" smooth="yes"/>
      <point x="96" y="28"/>
      <point x="126" y="0"/>
    </contour>
    <contour>
      <point x="875" y="0" type="curve" smooth="yes"/>
      <point x="912" y="0"/>
      <point x="935" y="32"/>
      <point x="935" y="65" type="curve" smooth="yes"/>
      <point x="935" y="78"/>
      <point x="931" y="89"/>
      <point x="921" y="101" type="curve" smooth="yes"/>
      <point x="246" y="958" type="line" smooth="yes"/>
      <point x="230" y="979"/>
      <point x="210" y="987"/>
      <point x="192" y="987" type="curve" smooth="yes"/>
      <point x="154" y="987"/>
      <point x="132" y="956"/>
      <point x="132" y="921" type="curve" smooth="yes"/>
      <point x="132" y="908"/>
      <point x="135" y="897"/>
      <point x="145" y="884" type="curve" smooth="yes"/>
      <point x="821" y="29" type="line" smooth="yes"/>
      <point x="836" y="8"/>
      <point x="855" y="0"/>
    </contour>
  </outline>
</glyph>
<glyph name="braceleft" format="1">
  <advance width="575"/>
  <unicode hex="007B"/>
  <outline>
    <contour>
      <point x="403" y="-199" type="curve" smooth="yes"/>
      <point x="514" y="-199" type="line" smooth="yes"/>
      <point x="546" y="-199"/>
      <point x="562" y="-170"/>
      <point x="560" y="-143" type="curve" smooth="yes"/>
      <point x="560" y="-123"/>
      <point x="547" y="-92"/>
      <point x="513" y="-92" type="curve" smooth="yes"/>
      <point x="443" y="-92" type="line" smooth="yes"/>
      <point x="395" y="-92"/>
      <point x="363" y="-42"/>
      <point x="363" y="48" type="curve" smooth="yes"/>
      <point x="363" y="351" type="line" smooth="yes"/>
      <point x="363" y="544"/>
      <point x="251" y="625"/>
      <point x="228" y="638" type="curve"/>
      <point x="252" y="653"/>
      <point x="363" y="693"/>
      <point x="363" y="923" type="curve" smooth="yes"/>
      <point x="363" y="1236" type="line" smooth="yes"/>
      <point x="363" y="1323"/>
      <point x="394" y="1373"/>
      <point x="444" y="1373" type="curve" smooth="yes"/>
      <point x="517" y="1373" type="line" smooth="yes"/>
      <point x="548" y="1373"/>
      <point x="561" y="1402"/>
      <point x="561" y="1426" type="curve" smooth="yes"/>
      <point x="561" y="1444"/>
      <point x="552" y="1479"/>
      <point x="517" y="1479" type="curve" smooth="yes"/>
      <point x="403" y="1479" type="line" smooth="yes"/>
      <point x="329" y="1479"/>
      <point x="226" y="1396"/>
      <point x="226" y="1257" type="curve" smooth="yes"/>
      <point x="226" y="959" type="line" smooth="yes"/>
      <point x="226" y="807"/>
      <point x="205" y="709"/>
      <point x="76" y="695" type="curve"/>
      <point x="38" y="696"/>
      <point x="19" y="666"/>
      <point x="19" y="637" type="curve" smooth="yes"/>
      <point x="19" y="614"/>
      <point x="34" y="579"/>
      <point x="76" y="580" type="curve"/>
      <point x="205" y="566"/>
      <point x="226" y="471"/>
      <point x="226" y="319" type="curve" smooth="yes"/>
      <point x="226" y="27" type="line" smooth="yes"/>
      <point x="226" y="-105"/>
      <point x="320" y="-199"/>
    </contour>
  </outline>
</glyph>
<glyph name="braceright" format="1">
  <advance width="575"/>
  <unicode hex="007D"/>
  <outline>
    <contour>
      <point x="59" y="-199" type="curve" smooth="yes"/>
      <point x="168" y="-199" type="line" smooth="yes"/>
      <point x="247" y="-199"/>
      <point x="348" y="-112"/>
      <point x="348" y="24" type="curve" smooth="yes"/>
      <point x="348" y="319" type="line" smooth="yes"/>
      <point x="348" y="468"/>
      <point x="367" y="565"/>
      <point x="495" y="579" type="curve"/>
      <point x="534" y="579"/>
      <point x="554" y="609"/>
      <point x="554" y="637" type="curve" smooth="yes"/>
      <point x="554" y="662"/>
      <point x="538" y="696"/>
      <point x="497" y="695" type="curve"/>
      <point x="368" y="709"/>
      <point x="348" y="806"/>
      <point x="348" y="959" type="curve" smooth="yes"/>
      <point x="348" y="1255" type="line" smooth="yes"/>
      <point x="348" y="1386"/>
      <point x="254" y="1479"/>
      <point x="168" y="1479" type="curve" smooth="yes"/>
      <point x="59" y="1479" type="line" smooth="yes"/>
      <point x="27" y="1479"/>
      <point x="13" y="1450"/>
      <point x="13" y="1426" type="curve" smooth="yes"/>
      <point x="13" y="1404"/>
      <point x="23" y="1373"/>
      <point x="57" y="1373" type="curve" smooth="yes"/>
      <point x="129" y="1373" type="line" smooth="yes"/>
      <point x="179" y="1373"/>
      <point x="211" y="1326"/>
      <point x="211" y="1234" type="curve" smooth="yes"/>
      <point x="211" y="927" type="line" smooth="yes"/>
      <point x="211" y="726"/>
      <point x="320" y="661"/>
      <point x="344" y="638" type="curve"/>
      <point x="328" y="626"/>
      <point x="211" y="547"/>
      <point x="211" y="351" type="curve" smooth="yes"/>
      <point x="211" y="52" type="line" smooth="yes"/>
      <point x="211" y="-39"/>
      <point x="181" y="-93"/>
      <point x="128" y="-93" type="curve" smooth="yes"/>
      <point x="59" y="-93" type="line" smooth="yes"/>
      <point x="28" y="-93"/>
      <point x="13" y="-121"/>
      <point x="13" y="-146" type="curve" smooth="yes"/>
      <point x="13" y="-169"/>
      <point x="25" y="-199"/>
    </contour>
  </outline>
</glyph>
<glyph name="currency" format="1">
  <advance width="1144"/>
  <unicode hex="00A4"/>
  <outline>
    <contour>
      <point x="189" y="159" type="curve" smooth="yes"/>
      <point x="202" y="159"/>
      <point x="212" y="164"/>
      <point x="223" y="175" type="curve" smooth="yes"/>
      <point x="310" y="262" type="line"/>
      <point x="378" y="212"/>
      <point x="467" y="180"/>
      <point x="577" y="180" type="curve" smooth="yes"/>
      <point x="687" y="180"/>
      <point x="775" y="210"/>
      <point x="843" y="263" type="curve"/>
      <point x="933" y="175" type="line" smooth="yes"/>
      <point x="942" y="166"/>
      <point x="952" y="159"/>
      <point x="961" y="159" type="curve" smooth="yes"/>
      <point x="988" y="159"/>
      <point x="1013" y="180"/>
      <point x="1013" y="208" type="curve" smooth="yes"/>
      <point x="1013" y="219"/>
      <point x="1009" y="232"/>
      <point x="999" y="242" type="curve" smooth="yes"/>
      <point x="911" y="328" type="line"/>
      <point x="971" y="404"/>
      <point x="1003" y="501"/>
      <point x="1003" y="599" type="curve" smooth="yes"/>
      <point x="1003" y="695"/>
      <point x="973" y="790"/>
      <point x="913" y="866" type="curve"/>
      <point x="999" y="951" type="line" smooth="yes"/>
      <point x="1010" y="962"/>
      <point x="1013" y="974"/>
      <point x="1013" y="984" type="curve" smooth="yes"/>
      <point x="1013" y="1010"/>
      <point x="991" y="1033"/>
      <point x="966" y="1033" type="curve" smooth="yes"/>
      <point x="953" y="1033"/>
      <point x="942" y="1028"/>
      <point x="932" y="1017" type="curve" smooth="yes"/>
      <point x="847" y="933" type="line"/>
      <point x="779" y="984"/>
      <point x="689" y="1018"/>
      <point x="577" y="1018" type="curve" smooth="yes"/>
      <point x="463" y="1018"/>
      <point x="374" y="985"/>
      <point x="306" y="933" type="curve"/>
      <point x="223" y="1017" type="line" smooth="yes"/>
      <point x="212" y="1028"/>
      <point x="201" y="1033"/>
      <point x="189" y="1033" type="curve" smooth="yes"/>
      <point x="164" y="1033"/>
      <point x="141" y="1010"/>
      <point x="141" y="985" type="curve" smooth="yes"/>
      <point x="141" y="973"/>
      <point x="146" y="962"/>
      <point x="156" y="951" type="curve" smooth="yes"/>
      <point x="241" y="866" type="line"/>
      <point x="179" y="789"/>
      <point x="150" y="696"/>
      <point x="150" y="599" type="curve" smooth="yes"/>
      <point x="150" y="501"/>
      <point x="181" y="404"/>
      <point x="242" y="328" type="curve"/>
      <point x="156" y="242" type="line" smooth="yes"/>
      <point x="146" y="232"/>
      <point x="141" y="220"/>
      <point x="141" y="208" type="curve" smooth="yes"/>
      <point x="141" y="182"/>
      <point x="164" y="159"/>
    </contour>
    <contour>
      <point x="577" y="278" type="curve" smooth="yes"/>
      <point x="371" y="278"/>
      <point x="268" y="438"/>
      <point x="268" y="599" type="curve" smooth="yes"/>
      <point x="268" y="758"/>
      <point x="371" y="920"/>
      <point x="577" y="920" type="curve" smooth="yes"/>
      <point x="782" y="920"/>
      <point x="885" y="758"/>
      <point x="885" y="599" type="curve" smooth="yes"/>
      <point x="885" y="438"/>
      <point x="782" y="278"/>
    </contour>
  </outline>
</glyph>
<glyph name="brokenbar" format="1">
  <advance width="455"/>
  <unicode hex="00A6"/>
  <outline>
    <contour>
      <point x="214" y="-177" type="curve" smooth="yes"/>
      <point x="271" y="-177"/>
      <point x="275" y="-130"/>
      <point x="275" y="-90" type="curve" smooth="yes"/>
      <point x="275" y="419" type="line" smooth="yes"/>
      <point x="275" y="471"/>
      <point x="262" y="507"/>
      <point x="215" y="507" type="curve" smooth="yes"/>
      <point x="178" y="507"/>
      <point x="154" y="479"/>
      <point x="154" y="447" type="curve" smooth="yes"/>
      <point x="154" y="-90" type="line" smooth="yes"/>
      <point x="154" y="-142"/>
      <point x="167" y="-177"/>
    </contour>
    <contour>
      <point x="214" y="762" type="curve" smooth="yes"/>
      <point x="270" y="762"/>
      <point x="274" y="809"/>
      <point x="274" y="849" type="curve" smooth="yes"/>
      <point x="274" y="1420" type="line" smooth="yes"/>
      <point x="274" y="1468"/>
      <point x="261" y="1505"/>
      <point x="214" y="1505" type="curve" smooth="yes"/>
      <point x="177" y="1505"/>
      <point x="153" y="1482"/>
      <point x="153" y="1444" type="curve" smooth="yes"/>
      <point x="153" y="849" type="line" smooth="yes"/>
      <point x="153" y="797"/>
      <point x="166" y="762"/>
    </contour>
  </outline>
</glyph>
<glyph name="dieresis" format="1">
  <advance width="569"/>
  <unicode hex="00A8"/>
  <outline>
    <contour>
      <point x="287" y="1040" type="move" name="_top"/>
    </contour>
    <contour>
      <point x="104" y="1215" type="curve" smooth="yes"/>
      <point x="169" y="1215"/>
      <point x="199" y="1259"/>
      <point x="199" y="1301" type="curve" smooth="yes"/>
      <point x="199" y="1341"/>
      <point x="169" y="1384"/>
      <point x="104" y="1384" type="curve" smooth="yes"/>
      <point x="42" y="1384"/>
      <point x="10" y="1342"/>
      <point x="10" y="1301" type="curve" smooth="yes"/>
      <point x="10" y="1260"/>
      <point x="40" y="1215"/>
    </contour>
    <contour>
      <point x="466" y="1215" type="curve" smooth="yes"/>
      <point x="529" y="1215"/>
      <point x="560" y="1259"/>
      <point x="560" y="1301" type="curve" smooth="yes"/>
      <point x="560" y="1341"/>
      <point x="530" y="1384"/>
      <point x="466" y="1384" type="curve" smooth="yes"/>
      <point x="403" y="1384"/>
      <point x="371" y="1342"/>
      <point x="371" y="1301" type="curve" smooth="yes"/>
      <point x="371" y="1260"/>
      <point x="401" y="1215"/>
    </contour>
  </outline>
</glyph>
<glyph name="guillemotleft" format="1">
  <advance width="1142"/>
  <unicode hex="00AB"/>
  <outline>
    <contour>
      <point x="470" y="137" type="curve" smooth="yes"/>
      <point x="493" y="137"/>
      <point x="513" y="154"/>
      <point x="513" y="178" type="curve" smooth="yes"/>
      <point x="514" y="186"/>
      <point x="513" y="193"/>
      <point x="510" y="199" type="curve" smooth="yes"/>
      <point x="345" y="547" type="line"/>
      <point x="512" y="898" type="line" smooth="yes"/>
      <point x="515" y="903"/>
      <point x="513" y="908"/>
      <point x="513" y="912" type="curve" smooth="yes"/>
      <point x="513" y="938"/>
      <point x="494" y="956"/>
      <point x="469" y="956" type="curve" smooth="yes"/>
      <point x="449" y="956"/>
      <point x="427" y="944"/>
      <point x="412" y="916" type="curve" smooth="yes"/>
      <point x="209" y="547" type="line"/>
      <point x="416" y="171" type="line" smooth="yes"/>
      <point x="430" y="143"/>
      <point x="452" y="137"/>
    </contour>
    <contour>
      <point x="833" y="137" type="curve" smooth="yes"/>
      <point x="856" y="137"/>
      <point x="877" y="156"/>
      <point x="877" y="179" type="curve" smooth="yes"/>
      <point x="878" y="187"/>
      <point x="877" y="193"/>
      <point x="874" y="199" type="curve" smooth="yes"/>
      <point x="709" y="547" type="line"/>
      <point x="876" y="898" type="line" smooth="yes"/>
      <point x="877" y="901"/>
      <point x="877" y="906"/>
      <point x="877" y="912" type="curve" smooth="yes"/>
      <point x="877" y="938"/>
      <point x="857" y="956"/>
      <point x="832" y="956" type="curve" smooth="yes"/>
      <point x="813" y="956"/>
      <point x="791" y="945"/>
      <point x="775" y="916" type="curve" smooth="yes"/>
      <point x="572" y="547" type="line"/>
      <point x="779" y="171" type="line" smooth="yes"/>
      <point x="793" y="144"/>
      <point x="816" y="137"/>
    </contour>
  </outline>
</glyph>
<glyph name="twosuperior" format="1">
  <advance width="741"/>
  <unicode hex="00B2"/>
  <outline>
    <contour>
      <point x="163" y="556" type="curve" smooth="yes"/>
      <point x="593" y="556" type="line" smooth="yes"/>
      <point x="617" y="556"/>
      <point x="629" y="574"/>
      <point x="629" y="593" type="curve" smooth="yes"/>
      <point x="629" y="611"/>
      <point x="616" y="630"/>
      <point x="593" y="630" type="curve" smooth="yes"/>
      <point x="192" y="630" type="line"/>
      <point x="337" y="760"/>
      <point x="620" y="1007"/>
      <point x="620" y="1195" type="curve" smooth="yes"/>
      <point x="620" y="1327"/>
      <point x="502" y="1393"/>
      <point x="375" y="1393" type="curve" smooth="yes"/>
      <point x="279" y="1393"/>
      <point x="146" y="1332"/>
      <point x="146" y="1286" type="curve" smooth="yes"/>
      <point x="146" y="1270"/>
      <point x="160" y="1257"/>
      <point x="180" y="1257" type="curve" smooth="yes"/>
      <point x="191" y="1257"/>
      <point x="202" y="1261"/>
      <point x="214" y="1269" type="curve" smooth="yes"/>
      <point x="252" y="1292"/>
      <point x="312" y="1319"/>
      <point x="371" y="1319" type="curve" smooth="yes"/>
      <point x="450" y="1319"/>
      <point x="529" y="1273"/>
      <point x="529" y="1190" type="curve" smooth="yes"/>
      <point x="529" y="1025"/>
      <point x="187" y="721"/>
      <point x="65" y="612" type="curve"/>
      <point x="71" y="623"/>
      <point x="94" y="611"/>
      <point x="94" y="604" type="curve" smooth="yes"/>
      <point x="94" y="575"/>
      <point x="114" y="556"/>
    </contour>
  </outline>
</glyph>
<glyph name="threesuperior" format="1">
  <advance width="772"/>
  <unicode hex="00B3"/>
  <outline>
    <contour>
      <point x="387" y="520" type="curve" smooth="yes"/>
      <point x="522" y="520"/>
      <point x="656" y="586"/>
      <point x="656" y="748" type="curve" smooth="yes"/>
      <point x="656" y="862"/>
      <point x="573" y="941"/>
      <point x="471" y="965" type="curve"/>
      <point x="575" y="985"/>
      <point x="643" y="1051"/>
      <point x="643" y="1158" type="curve" smooth="yes"/>
      <point x="643" y="1318"/>
      <point x="496" y="1382"/>
      <point x="366" y="1382" type="curve" smooth="yes"/>
      <point x="294" y="1382"/>
      <point x="155" y="1354"/>
      <point x="155" y="1306" type="curve" smooth="yes"/>
      <point x="155" y="1288"/>
      <point x="170" y="1269"/>
      <point x="190" y="1269" type="curve" smooth="yes"/>
      <point x="209" y="1269"/>
      <point x="305" y="1309"/>
      <point x="383" y="1309" type="curve" smooth="yes"/>
      <point x="476" y="1309"/>
      <point x="560" y="1255"/>
      <point x="560" y="1157" type="curve" smooth="yes"/>
      <point x="560" y="1042"/>
      <point x="460" y="1002"/>
      <point x="360" y="997" type="curve" smooth="yes"/>
      <point x="330" y="995" type="line" smooth="yes"/>
      <point x="306" y="994"/>
      <point x="294" y="981"/>
      <point x="294" y="963" type="curve" smooth="yes"/>
      <point x="294" y="946"/>
      <point x="305" y="931"/>
      <point x="327" y="931" type="curve" smooth="yes"/>
      <point x="372" y="931" type="line" smooth="yes"/>
      <point x="472" y="931"/>
      <point x="574" y="863"/>
      <point x="574" y="744" type="curve" smooth="yes"/>
      <point x="574" y="643"/>
      <point x="504" y="589"/>
      <point x="392" y="589" type="curve" smooth="yes"/>
      <point x="338" y="589"/>
      <point x="265" y="596"/>
      <point x="228" y="628" type="curve" smooth="yes"/>
      <point x="204" y="654"/>
      <point x="168" y="626"/>
      <point x="168" y="600" type="curve" smooth="yes"/>
      <point x="168" y="556"/>
      <point x="311" y="520"/>
    </contour>
  </outline>
</glyph>
<glyph name="mu" format="1">
  <advance width="1143"/>
  <unicode hex="00B5"/>
  <outline>
    <contour>
      <point x="225" y="-241" type="curve" smooth="yes"/>
      <point x="257" y="-241"/>
      <point x="292" y="-219"/>
      <point x="292" y="-175" type="curve" smooth="yes"/>
      <point x="292" y="45" type="line"/>
      <point x="355" y="-6"/>
      <point x="435" y="-26"/>
      <point x="521" y="-26" type="curve" smooth="yes"/>
      <point x="655" y="-26"/>
      <point x="793" y="42"/>
      <point x="851" y="157" type="curve"/>
      <point x="851" y="60" type="line" smooth="yes"/>
      <point x="851" y="20"/>
      <point x="882" y="0"/>
      <point x="915" y="0" type="curve" smooth="yes"/>
      <point x="947" y="0"/>
      <point x="981" y="22"/>
      <point x="981" y="60" type="curve" smooth="yes"/>
      <point x="981" y="928" type="line" smooth="yes"/>
      <point x="981" y="969"/>
      <point x="950" y="988"/>
      <point x="917" y="988" type="curve" smooth="yes"/>
      <point x="885" y="988"/>
      <point x="851" y="966"/>
      <point x="851" y="928" type="curve" smooth="yes"/>
      <point x="851" y="384" type="line"/>
      <point x="837" y="178"/>
      <point x="699" y="75"/>
      <point x="534" y="75" type="curve" smooth="yes"/>
      <point x="409" y="75"/>
      <point x="292" y="158"/>
      <point x="292" y="341" type="curve" smooth="yes"/>
      <point x="292" y="927" type="line" smooth="yes"/>
      <point x="292" y="968"/>
      <point x="259" y="986"/>
      <point x="227" y="986" type="curve" smooth="yes"/>
      <point x="195" y="986"/>
      <point x="162" y="968"/>
      <point x="162" y="927" type="curve" smooth="yes"/>
      <point x="162" y="-175" type="line" smooth="yes"/>
      <point x="162" y="-223"/>
      <point x="193" y="-241"/>
    </contour>
  </outline>
</glyph>
<glyph name="periodcentered" format="1">
  <advance width="572"/>
  <unicode hex="00B7"/>
  <outline>
    <contour>
      <point x="258" y="435" type="curve" smooth="yes"/>
      <point x="321" y="435"/>
      <point x="354" y="477"/>
      <point x="354" y="520" type="curve" smooth="yes"/>
      <point x="354" y="563"/>
      <point x="321" y="605"/>
      <point x="258" y="605" type="curve" smooth="yes"/>
      <point x="194" y="605"/>
      <point x="161" y="563"/>
      <point x="161" y="520" type="curve" smooth="yes"/>
      <point x="161" y="477"/>
      <point x="194" y="435"/>
    </contour>
  </outline>
</glyph>
<glyph name="onesuperior" format="1">
  <advance width="683"/>
  <unicode hex="00B9"/>
  <outline>
    <contour>
      <point x="426" y="556" type="curve" smooth="yes"/>
      <point x="447" y="556"/>
      <point x="468" y="570"/>
      <point x="468" y="596" type="curve" smooth="yes"/>
      <point x="468" y="1329" type="line" smooth="yes"/>
      <point x="468" y="1359"/>
      <point x="449" y="1370"/>
      <point x="430" y="1370" type="curve" smooth="yes"/>
      <point x="421" y="1370"/>
      <point x="414" y="1367"/>
      <point x="406" y="1363" type="curve" smooth="yes"/>
      <point x="209" y="1237" type="line" smooth="yes"/>
      <point x="202" y="1232"/>
      <point x="196" y="1224"/>
      <point x="196" y="1212" type="curve" smooth="yes"/>
      <point x="196" y="1196"/>
      <point x="209" y="1179"/>
      <point x="230" y="1179" type="curve" smooth="yes"/>
      <point x="236" y="1179"/>
      <point x="242" y="1180"/>
      <point x="248" y="1185" type="curve" smooth="yes"/>
      <point x="386" y="1275" type="line"/>
      <point x="386" y="596" type="line" smooth="yes"/>
      <point x="386" y="570"/>
      <point x="407" y="556"/>
    </contour>
  </outline>
</glyph>
<glyph name="ordmasculine" format="1">
  <advance width="1135"/>
  <unicode hex="00BA"/>
  <outline>
    <contour>
      <point x="548" y="779" type="curve" smooth="yes"/>
      <point x="357" y="779"/>
      <point x="282" y="958"/>
      <point x="282" y="1101" type="curve" smooth="yes"/>
      <point x="282" y="1244"/>
      <point x="357" y="1422"/>
      <point x="548" y="1422" type="curve" smooth="yes"/>
      <point x="740" y="1422"/>
      <point x="816" y="1244"/>
      <point x="816" y="1101" type="curve" smooth="yes"/>
      <point x="816" y="958"/>
      <point x="740" y="779"/>
    </contour>
    <contour>
      <point x="548" y="693" type="curve" smooth="yes"/>
      <point x="807" y="693"/>
      <point x="926" y="897"/>
      <point x="926" y="1100" type="curve" smooth="yes"/>
      <point x="926" y="1303"/>
      <point x="807" y="1509"/>
      <point x="548" y="1509" type="curve" smooth="yes"/>
      <point x="290" y="1509"/>
      <point x="172" y="1303"/>
      <point x="172" y="1100" type="curve" smooth="yes"/>
      <point x="172" y="897"/>
      <point x="290" y="693"/>
    </contour>
  </outline>
</glyph>
<glyph name="multiply" format="1">
  <advance width="1355"/>
  <unicode hex="00D7"/>
  <outline>
    <contour>
      <point x="360" y="117" type="curve" smooth="yes"/>
      <point x="376" y="117"/>
      <point x="390" y="125"/>
      <point x="400" y="134" type="curve" smooth="yes"/>
      <point x="676" y="410" type="line"/>
      <point x="942" y="146" type="line" smooth="yes"/>
      <point x="953" y="136"/>
      <point x="967" y="130"/>
      <point x="979" y="129" type="curve"/>
      <point x="1014" y="129"/>
      <point x="1041" y="159"/>
      <point x="1041" y="194" type="curve" smooth="yes"/>
      <point x="1041" y="208"/>
      <point x="1038" y="221"/>
      <point x="1026" y="231" type="curve" smooth="yes"/>
      <point x="761" y="495" type="line"/>
      <point x="1038" y="773" type="line" smooth="yes"/>
      <point x="1050" y="786"/>
      <point x="1056" y="801"/>
      <point x="1056" y="814" type="curve" smooth="yes"/>
      <point x="1056" y="844"/>
      <point x="1027" y="871"/>
      <point x="997" y="871" type="curve" smooth="yes"/>
      <point x="982" y="871"/>
      <point x="969" y="866"/>
      <point x="956" y="853" type="curve" smooth="yes"/>
      <point x="680" y="577" type="line"/>
      <point x="413" y="843" type="line" smooth="yes"/>
      <point x="402" y="854"/>
      <point x="391" y="860"/>
      <point x="375" y="860" type="curve" smooth="yes"/>
      <point x="341" y="860"/>
      <point x="311" y="829"/>
      <point x="311" y="797" type="curve" smooth="yes"/>
      <point x="311" y="781"/>
      <point x="318" y="769"/>
      <point x="329" y="758" type="curve" smooth="yes"/>
      <point x="595" y="492" type="line"/>
      <point x="318" y="215" type="line" smooth="yes"/>
      <point x="305" y="202"/>
      <point x="300" y="186"/>
      <point x="300" y="174" type="curve" smooth="yes"/>
      <point x="300" y="144"/>
      <point x="329" y="117"/>
    </contour>
  </outline>
</glyph>
<glyph name="eth" format="1">
  <advance width="1145"/>
  <unicode hex="00F0"/>
  <outline>
    <contour>
      <point x="542" y="-33" type="curve" smooth="yes"/>
      <point x="939" y="-33"/>
      <point x="1054" y="283"/>
      <point x="1054" y="612" type="curve" smooth="yes"/>
      <point x="1054" y="744"/>
      <point x="1043" y="898"/>
      <point x="1009" y="1049" type="curve"/>
      <point x="1144" y="1049" type="line" smooth="yes"/>
      <point x="1182" y="1049"/>
      <point x="1204" y="1080"/>
      <point x="1204" y="1110" type="curve" smooth="yes"/>
      <point x="1204" y="1139"/>
      <point x="1185" y="1169"/>
      <point x="1144" y="1169" type="curve" smooth="yes"/>
      <point x="973" y="1169" type="line"/>
      <point x="932" y="1283"/>
      <point x="824" y="1515"/>
      <point x="723" y="1515" type="curve" smooth="yes"/>
      <point x="669" y="1515"/>
      <point x="625" y="1456"/>
      <point x="674" y="1405" type="curve" smooth="yes"/>
      <point x="739" y="1333"/>
      <point x="782" y="1253"/>
      <point x="815" y="1169" type="curve"/>
      <point x="643" y="1169" type="line" smooth="yes"/>
      <point x="602" y="1169"/>
      <point x="582" y="1138"/>
      <point x="582" y="1109" type="curve" smooth="yes"/>
      <point x="582" y="1079"/>
      <point x="602" y="1049"/>
      <point x="643" y="1049" type="curve" smooth="yes"/>
      <point x="856" y="1049" type="line"/>
      <point x="892" y="894"/>
      <point x="894" y="779"/>
      <point x="898" y="662" type="curve"/>
      <point x="836" y="810"/>
      <point x="691" y="883"/>
      <point x="527" y="883" type="curve" smooth="yes"/>
      <point x="247" y="883"/>
      <point x="92" y="692"/>
      <point x="92" y="433" type="curve" smooth="yes"/>
      <point x="92" y="171"/>
      <point x="261" y="-33"/>
    </contour>
    <contour>
      <point x="561" y="90" type="curve" smooth="yes"/>
      <point x="356" y="90"/>
      <point x="243" y="232"/>
      <point x="243" y="423" type="curve" smooth="yes"/>
      <point x="243" y="602"/>
      <point x="327" y="771"/>
      <point x="537" y="771" type="curve" smooth="yes"/>
      <point x="758" y="771"/>
      <point x="878" y="616"/>
      <point x="878" y="414" type="curve" smooth="yes"/>
      <point x="878" y="244"/>
      <point x="745" y="90"/>
    </contour>
  </outline>
</glyph>
<glyph name="thorn" format="1">
  <advance width="1140"/>
  <unicode hex="00FE"/>
  <outline>
    <contour>
      <point x="204" y="-343" type="curve" smooth="yes"/>
      <point x="236" y="-343"/>
      <point x="267" y="-321"/>
      <point x="267" y="-277" type="curve" smooth="yes"/>
      <point x="267" y="169" type="line"/>
      <point x="357" y="35"/>
      <point x="485" y="-30"/>
      <point x="635" y="-30" type="curve" smooth="yes"/>
      <point x="933" y="-30"/>
      <point x="1050" y="248"/>
      <point x="1050" y="498" type="curve" smooth="yes"/>
      <point x="1050" y="756"/>
      <point x="934" y="1018"/>
      <point x="629" y="1018" type="curve" smooth="yes"/>
      <point x="493" y="1018"/>
      <point x="346" y="953"/>
      <point x="272" y="830" type="curve"/>
      <point x="272" y="1362" type="line" smooth="yes"/>
      <point x="272" y="1401"/>
      <point x="241" y="1420"/>
      <point x="209" y="1420" type="curve" smooth="yes"/>
      <point x="177" y="1420"/>
      <point x="142" y="1400"/>
      <point x="142" y="1362" type="curve" smooth="yes"/>
      <point x="142" y="-277" type="line" smooth="yes"/>
      <point x="142" y="-320"/>
      <point x="173" y="-343"/>
    </contour>
    <contour>
      <point x="618" y="83" type="curve" smooth="yes"/>
      <point x="354" y="83"/>
      <point x="272" y="289"/>
      <point x="272" y="514" type="curve" smooth="yes"/>
      <point x="272" y="713"/>
      <point x="365" y="905"/>
      <point x="600" y="905" type="curve" smooth="yes"/>
      <point x="830" y="905"/>
      <point x="910" y="697"/>
      <point x="910" y="508" type="curve" smooth="yes"/>
      <point x="910" y="325"/>
      <point x="852" y="83"/>
    </contour>
  </outline>
</glyph>
<glyph name="lslash" format="1">
  <advance width="458"/>
  <unicode hex="0142"/>
  <outline>
    <contour>
      <point x="-27" y="568" type="curve" smooth="yes"/>
      <point x="-18" y="568"/>
      <point x="-10" y="569"/>
      <point x="-2" y="574" type="curve"/>
      <point x="551" y="890" type="line"/>
      <point x="571" y="904"/>
      <point x="574" y="915"/>
      <point x="574" y="934" type="curve" smooth="yes"/>
      <point x="574" y="968"/>
      <point x="547" y="999"/>
      <point x="511" y="999" type="curve" smooth="yes"/>
      <point x="505" y="999"/>
      <point x="497" y="998"/>
      <point x="486" y="994" type="curve"/>
      <point x="-56" y="683" type="line"/>
      <point x="-77" y="669"/>
      <point x="-87" y="651"/>
      <point x="-87" y="632" type="curve" smooth="yes"/>
      <point x="-87" y="600"/>
      <point x="-61" y="568"/>
    </contour>
    <component base="l"/>
  </outline>
</glyph>
<glyph name="eng" format="1">
  <advance width="1143"/>
  <unicode hex="014B"/>
  <outline>
    <contour>
      <point x="397" y="-256" type="curve" smooth="yes"/>
      <point x="760" y="-378"/>
      <point x="981" y="-264"/>
      <point x="981" y="32" type="curve"/>
      <point x="981" y="353" type="line"/>
      <point x="851" y="353" type="line"/>
      <point x="851" y="66" type="line" smooth="yes"/>
      <point x="851" y="-227"/>
      <point x="707" y="-247"/>
      <point x="428" y="-158" type="curve" smooth="yes"/>
      <point x="360" y="-136"/>
      <point x="336" y="-234"/>
    </contour>
    <component base="n"/>
  </outline>
</glyph>
<glyph name="florin" format="1">
  <advance width="1145"/>
  <unicode hex="0192"/>
  <outline>
    <contour>
      <point x="39" y="-535" type="curve" smooth="yes"/>
      <point x="181" y="-535"/>
      <point x="343" y="-447"/>
      <point x="449" y="-24" type="curve" smooth="yes"/>
      <point x="514" y="240"/>
      <point x="574" y="554"/>
      <point x="637" y="830" type="curve"/>
      <point x="832" y="830" type="line" smooth="yes"/>
      <point x="873" y="830"/>
      <point x="893" y="860"/>
      <point x="893" y="890" type="curve" smooth="yes"/>
      <point x="893" y="921"/>
      <point x="873" y="952"/>
      <point x="832" y="952" type="curve" smooth="yes"/>
      <point x="665" y="952" type="line"/>
      <point x="746" y="1291"/>
      <point x="824" y="1428"/>
      <point x="959" y="1428" type="curve" smooth="yes"/>
      <point x="1019" y="1428"/>
      <point x="1046" y="1452"/>
      <point x="1046" y="1480" type="curve" smooth="yes"/>
      <point x="1046" y="1505"/>
      <point x="1021" y="1530"/>
      <point x="976" y="1530" type="curve" smooth="yes"/>
      <point x="790" y="1530"/>
      <point x="618" y="1371"/>
      <point x="540" y="952" type="curve"/>
      <point x="355" y="952" type="line" smooth="yes"/>
      <point x="313" y="952"/>
      <point x="293" y="922"/>
      <point x="293" y="891" type="curve" smooth="yes"/>
      <point x="293" y="860"/>
      <point x="313" y="830"/>
      <point x="355" y="830" type="curve" smooth="yes"/>
      <point x="513" y="830" type="line"/>
      <point x="451" y="554"/>
      <point x="392" y="241"/>
      <point x="327" y="-22" type="curve" smooth="yes"/>
      <point x="241" y="-366"/>
      <point x="128" y="-422"/>
      <point x="58" y="-426" type="curve" smooth="yes"/>
      <point x="-3" y="-430"/>
      <point x="-30" y="-459"/>
      <point x="-30" y="-486" type="curve" smooth="yes"/>
      <point x="-30" y="-512"/>
      <point x="-9" y="-535"/>
    </contour>
  </outline>
</glyph>
<glyph name="uni02C9" format="1">
  <advance width="569"/>
  <unicode hex="02C9"/>
  <outline>
    <contour>
      <point x="286" y="1040" type="move" name="_top"/>
    </contour>
    <contour>
      <point x="38" y="1334" type="curve" smooth="yes"/>
      <point x="538" y="1334" type="line" smooth="yes"/>
      <point x="577" y="1334"/>
      <point x="597" y="1352"/>
      <point x="597" y="1385" type="curve" smooth="yes"/>
      <point x="597" y="1416"/>
      <point x="577" y="1436"/>
      <point x="538" y="1436" type="curve" smooth="yes"/>
      <point x="38" y="1436" type="line" smooth="yes"/>
      <point x="-4" y="1436"/>
      <point x="-25" y="1416"/>
      <point x="-25" y="1385" type="curve" smooth="yes"/>
      <point x="-25" y="1352"/>
      <point x="-4" y="1334"/>
    </contour>
  </outline>
</glyph>
<glyph name="ogonek" format="1">
  <advance width="569"/>
  <unicode hex="02DB"/>
  <outline>
    <contour>
      <point x="243" y="0" type="move" name="_ogonek"/>
    </contour>
    <contour>
      <point x="417" y="-419" type="curve"/>
      <point x="417" y="-354" type="line"/>
      <point x="235" y="-354"/>
      <point x="125" y="-272"/>
      <point x="273" y="0" type="curve"/>
      <point x="217" y="0" type="line"/>
      <point x="-57" y="-321"/>
      <point x="99" y="-502"/>
    </contour>
  </outline>
</glyph>
<glyph name="hungarumlaut" format="1">
  <advance width="569"/>
  <unicode hex="02DD"/>
  <outline>
    <contour>
      <point x="174" y="1040" type="move" name="_top"/>
    </contour>
    <contour>
      <point x="27" y="1102" type="curve" smooth="yes"/>
      <point x="38" y="1102"/>
      <point x="51" y="1105"/>
      <point x="66" y="1116" type="curve" smooth="yes"/>
      <point x="390" y="1360" type="line" smooth="yes"/>
      <point x="405" y="1371"/>
      <point x="410" y="1385"/>
      <point x="410" y="1399" type="curve" smooth="yes"/>
      <point x="410" y="1440"/>
      <point x="370" y="1479"/>
      <point x="329" y="1479" type="curve" smooth="yes"/>
      <point x="312" y="1479"/>
      <point x="298" y="1472"/>
      <point x="285" y="1459" type="curve"/>
      <point x="9" y="1163" type="line" smooth="yes"/>
      <point x="-1" y="1152"/>
      <point x="-5" y="1143"/>
      <point x="-4" y="1132" type="curve"/>
      <point x="-4" y="1114"/>
      <point x="7" y="1102"/>
    </contour>
    <contour>
      <point x="315" y="1102" type="curve" smooth="yes"/>
      <point x="325" y="1102"/>
      <point x="338" y="1105"/>
      <point x="353" y="1116" type="curve" smooth="yes"/>
      <point x="677" y="1360" type="line" smooth="yes"/>
      <point x="691" y="1371"/>
      <point x="698" y="1386"/>
      <point x="698" y="1400" type="curve" smooth="yes"/>
      <point x="698" y="1440"/>
      <point x="657" y="1479"/>
      <point x="616" y="1479" type="curve" smooth="yes"/>
      <point x="599" y="1479"/>
      <point x="585" y="1472"/>
      <point x="572" y="1459" type="curve"/>
      <point x="296" y="1163" type="line" smooth="yes"/>
      <point x="285" y="1152"/>
      <point x="283" y="1143"/>
      <point x="283" y="1132" type="curve" smooth="yes"/>
      <point x="283" y="1116"/>
      <point x="296" y="1102"/>
    </contour>
  </outline>
</glyph>
<glyph name="breveinvertedcomb" format="1">
  <advance width="569"/>
  <unicode hex="0311"/>
  <outline>
    <contour>
      <point x="286" y="1040" type="move" name="_top"/>
    </contour>
    <contour>
      <point x="76" y="1273" type="curve" smooth="yes"/>
      <point x="94" y="1273"/>
      <point x="109" y="1281"/>
      <point x="121" y="1299" type="curve" smooth="yes"/>
      <point x="162" y="1356"/>
      <point x="202" y="1377"/>
      <point x="285" y="1377" type="curve" smooth="yes"/>
      <point x="368" y="1377"/>
      <point x="406" y="1356"/>
      <point x="449" y="1299" type="curve" smooth="yes"/>
      <point x="461" y="1281"/>
      <point x="476" y="1273"/>
      <point x="494" y="1273" type="curve" smooth="yes"/>
      <point x="520" y="1273"/>
      <point x="541" y="1289"/>
      <point x="541" y="1316" type="curve" smooth="yes"/>
      <point x="541" y="1322"/>
      <point x="540" y="1331"/>
      <point x="536" y="1339" type="curve" smooth="yes"/>
      <point x="495" y="1430"/>
      <point x="405" y="1484"/>
      <point x="285" y="1484" type="curve" smooth="yes"/>
      <point x="165" y="1484"/>
      <point x="75" y="1430"/>
      <point x="34" y="1339" type="curve" smooth="yes"/>
      <point x="30" y="1331"/>
      <point x="29" y="1322"/>
      <point x="29" y="1316" type="curve" smooth="yes"/>
      <point x="29" y="1289"/>
      <point x="50" y="1273"/>
    </contour>
  </outline>
</glyph>
<glyph name="emdash" format="1">
  <advance width="2048"/>
  <unicode hex="2014"/>
  <outline>
    <contour>
      <point x="64" y="465" type="curve" smooth="yes"/>
      <point x="1984" y="465" type="line" smooth="yes"/>
      <point x="2027" y="465"/>
      <point x="2046" y="495"/>
      <point x="2046" y="525" type="curve" smooth="yes"/>
      <point x="2046" y="556"/>
      <point x="2027" y="587"/>
      <point x="1984" y="587" type="curve" smooth="yes"/>
      <point x="64" y="587" type="line" smooth="yes"/>
      <point x="22" y="587"/>
      <point x="2" y="557"/>
      <point x="2" y="526" type="curve" smooth="yes"/>
      <point x="2" y="495"/>
      <point x="22" y="465"/>
    </contour>
  </outline>
</glyph>
<glyph name="quotesinglbase" format="1">
  <advance width="572"/>
  <unicode hex="201A"/>
  <outline>
    <contour>
      <point x="212" y="-197" type="curve" smooth="yes"/>
      <point x="238" y="-197" type="line" smooth="yes"/>
      <point x="268" y="-197"/>
      <point x="280" y="-186"/>
      <point x="294" y="-154" type="curve" smooth="yes"/>
      <point x="410" y="116" type="line" smooth="yes"/>
      <point x="417" y="130"/>
      <point x="418" y="172"/>
      <point x="376" y="172" type="curve" smooth="yes"/>
      <point x="308" y="172" type="line" smooth="yes"/>
      <point x="276" y="170"/>
      <point x="243" y="163"/>
      <point x="235" y="116" type="curve" smooth="yes"/>
      <point x="188" y="-154" type="line" smooth="yes"/>
      <point x="186" y="-166"/>
      <point x="184" y="-196"/>
    </contour>
  </outline>
</glyph>
<glyph name="quotedblbase" format="1">
  <advance width="1140"/>
  <unicode hex="201E"/>
  <outline>
    <contour>
      <point x="302" y="-220" type="curve"/>
      <point x="328" y="-220" type="line"/>
      <point x="357" y="-221"/>
      <point x="370" y="-209"/>
      <point x="384" y="-177" type="curve" smooth="yes"/>
      <point x="501" y="93" type="line" smooth="yes"/>
      <point x="507" y="107"/>
      <point x="509" y="146"/>
      <point x="467" y="149" type="curve"/>
      <point x="399" y="149" type="line"/>
      <point x="367" y="148"/>
      <point x="334" y="140"/>
      <point x="326" y="93" type="curve" smooth="yes"/>
      <point x="278" y="-177" type="line" smooth="yes"/>
      <point x="276" y="-189"/>
      <point x="274" y="-219"/>
    </contour>
    <contour>
      <point x="683" y="-220" type="curve"/>
      <point x="709" y="-220" type="line"/>
      <point x="738" y="-221"/>
      <point x="752" y="-209"/>
      <point x="765" y="-177" type="curve" smooth="yes"/>
      <point x="882" y="93" type="line" smooth="yes"/>
      <point x="888" y="107"/>
      <point x="890" y="146"/>
      <point x="848" y="149" type="curve"/>
      <point x="780" y="149" type="line"/>
      <point x="748" y="148"/>
      <point x="715" y="140"/>
      <point x="707" y="93" type="curve" smooth="yes"/>
      <point x="659" y="-177" type="line" smooth="yes"/>
      <point x="657" y="-189"/>
      <point x="655" y="-219"/>
    </contour>
  </outline>
</glyph>
<glyph name="daggerdbl" format="1">
  <advance width="1145"/>
  <unicode hex="2021"/>
  <outline>
    <contour>
      <point x="572" y="-1" type="curve" smooth="yes"/>
      <point x="606" y="-1"/>
      <point x="637" y="20"/>
      <point x="637" y="61" type="curve" smooth="yes"/>
      <point x="637" y="360" type="line"/>
      <point x="928" y="360" type="line" smooth="yes"/>
      <point x="966" y="360"/>
      <point x="985" y="387"/>
      <point x="985" y="419" type="curve" smooth="yes"/>
      <point x="985" y="448"/>
      <point x="966" y="477"/>
      <point x="928" y="477" type="curve" smooth="yes"/>
      <point x="637" y="477" type="line"/>
      <point x="637" y="996" type="line"/>
      <point x="928" y="996" type="line" smooth="yes"/>
      <point x="966" y="996"/>
      <point x="985" y="1023"/>
      <point x="985" y="1055" type="curve" smooth="yes"/>
      <point x="985" y="1084"/>
      <point x="966" y="1113"/>
      <point x="928" y="1113" type="curve" smooth="yes"/>
      <point x="637" y="1113" type="line"/>
      <point x="637" y="1415" type="line" smooth="yes"/>
      <point x="637" y="1459"/>
      <point x="606" y="1478"/>
      <point x="572" y="1478" type="curve" smooth="yes"/>
      <point x="541" y="1478"/>
      <point x="508" y="1459"/>
      <point x="508" y="1415" type="curve" smooth="yes"/>
      <point x="508" y="1113" type="line"/>
      <point x="211" y="1113" type="line" smooth="yes"/>
      <point x="173" y="1113"/>
      <point x="156" y="1083"/>
      <point x="156" y="1054" type="curve" smooth="yes"/>
      <point x="156" y="1025"/>
      <point x="174" y="996"/>
      <point x="211" y="996" type="curve" smooth="yes"/>
      <point x="508" y="996" type="line"/>
      <point x="508" y="477" type="line"/>
      <point x="211" y="477" type="line" smooth="yes"/>
      <point x="173" y="477"/>
      <point x="156" y="447"/>
      <point x="156" y="418" type="curve" smooth="yes"/>
      <point x="156" y="389"/>
      <point x="174" y="360"/>
      <point x="211" y="360" type="curve" smooth="yes"/>
      <point x="508" y="360" type="line"/>
      <point x="508" y="61" type="line" smooth="yes"/>
      <point x="508" y="20"/>
      <point x="541" y="-1"/>
    </contour>
  </outline>
</glyph>
<glyph name="perthousand" format="1">
  <advance width="2295"/>
  <unicode hex="2030"/>
  <outline>
    <contour>
      <point x="348" y="-73" type="curve" smooth="yes"/>
      <point x="363" y="-73"/>
      <point x="376" y="-73"/>
      <point x="386" y="-56" type="curve" smooth="yes"/>
      <point x="1196" y="1354" type="line" smooth="yes"/>
      <point x="1200" y="1361"/>
      <point x="1199" y="1366"/>
      <point x="1199" y="1374" type="curve" smooth="yes"/>
      <point x="1199" y="1404"/>
      <point x="1176" y="1428"/>
      <point x="1149" y="1428" type="curve" smooth="yes"/>
      <point x="1131" y="1428"/>
      <point x="1110" y="1417"/>
      <point x="1096" y="1392" type="curve" smooth="yes"/>
      <point x="294" y="-9" type="line" smooth="yes"/>
      <point x="291" y="-15"/>
      <point x="291" y="-18"/>
      <point x="291" y="-23" type="curve" smooth="yes"/>
      <point x="291" y="-53"/>
      <point x="319" y="-73"/>
    </contour>
    <contour>
      <point x="374" y="736" type="curve" smooth="yes"/>
      <point x="217" y="736"/>
      <point x="162" y="891"/>
      <point x="162" y="1020" type="curve" smooth="yes"/>
      <point x="162" y="1147"/>
      <point x="217" y="1302"/>
      <point x="374" y="1302" type="curve" smooth="yes"/>
      <point x="532" y="1302"/>
      <point x="585" y="1147"/>
      <point x="585" y="1020" type="curve" smooth="yes"/>
      <point x="585" y="895"/>
      <point x="535" y="736"/>
    </contour>
    <contour>
      <point x="374" y="646" type="curve" smooth="yes"/>
      <point x="580" y="646"/>
      <point x="700" y="823"/>
      <point x="700" y="1020" type="curve" smooth="yes"/>
      <point x="700" y="1215"/>
      <point x="581" y="1392"/>
      <point x="374" y="1392" type="curve" smooth="yes"/>
      <point x="167" y="1392"/>
      <point x="49" y="1216"/>
      <point x="49" y="1019" type="curve" smooth="yes"/>
      <point x="49" y="825"/>
      <point x="165" y="646"/>
    </contour>
    <contour>
      <point x="1141" y="61" type="curve" smooth="yes"/>
      <point x="983" y="61"/>
      <point x="930" y="214"/>
      <point x="930" y="343" type="curve" smooth="yes"/>
      <point x="930" y="471"/>
      <point x="983" y="626"/>
      <point x="1141" y="626" type="curve" smooth="yes"/>
      <point x="1299" y="626"/>
      <point x="1352" y="470"/>
      <point x="1352" y="343" type="curve" smooth="yes"/>
      <point x="1352" y="218"/>
      <point x="1301" y="61"/>
    </contour>
    <contour>
      <point x="1141" y="-30" type="curve" smooth="yes"/>
      <point x="1348" y="-30"/>
      <point x="1467" y="147"/>
      <point x="1467" y="343" type="curve" smooth="yes"/>
      <point x="1467" y="539"/>
      <point x="1348" y="716"/>
      <point x="1141" y="716" type="curve" smooth="yes"/>
      <point x="933" y="716"/>
      <point x="814" y="539"/>
      <point x="814" y="343" type="curve" smooth="yes"/>
      <point x="814" y="148"/>
      <point x="933" y="-30"/>
    </contour>
    <contour>
      <point x="1885" y="61" type="curve" smooth="yes"/>
      <point x="1727" y="61"/>
      <point x="1674" y="214"/>
      <point x="1674" y="343" type="curve" smooth="yes"/>
      <point x="1674" y="467"/>
      <point x="1725" y="626"/>
      <point x="1885" y="626" type="curve" smooth="yes"/>
      <point x="2043" y="626"/>
      <point x="2096" y="470"/>
      <point x="2096" y="343" type="curve" smooth="yes"/>
      <point x="2096" y="219"/>
      <point x="2046" y="61"/>
    </contour>
    <contour>
      <point x="1885" y="-30" type="curve" smooth="yes"/>
      <point x="2093" y="-30"/>
      <point x="2210" y="147"/>
      <point x="2210" y="343" type="curve" smooth="yes"/>
      <point x="2210" y="540"/>
      <point x="2091" y="716"/>
      <point x="1886" y="716" type="curve" smooth="yes"/>
      <point x="1678" y="716"/>
      <point x="1559" y="539"/>
      <point x="1559" y="343" type="curve" smooth="yes"/>
      <point x="1559" y="149"/>
      <point x="1676" y="-30"/>
    </contour>
  </outline>
</glyph>
<glyph name="guilsinglleft" format="1">
  <advance width="572"/>
  <unicode hex="2039"/>
  <outline>
    <contour>
      <point x="378" y="135" type="curve" smooth="yes"/>
      <point x="404" y="135"/>
      <point x="423" y="153"/>
      <point x="423" y="179" type="curve" smooth="yes"/>
      <point x="423" y="187"/>
      <point x="421" y="196"/>
      <point x="419" y="201" type="curve" smooth="yes"/>
      <point x="256" y="547" type="line"/>
      <point x="419" y="891" type="line" smooth="yes"/>
      <point x="422" y="898"/>
      <point x="423" y="907"/>
      <point x="423" y="912" type="curve" smooth="yes"/>
      <point x="423" y="938"/>
      <point x="404" y="957"/>
      <point x="378" y="957" type="curve" smooth="yes"/>
      <point x="358" y="957"/>
      <point x="335" y="944"/>
      <point x="321" y="916" type="curve"/>
      <point x="117" y="547" type="line"/>
      <point x="321" y="176" type="line" smooth="yes"/>
      <point x="337" y="145"/>
      <point x="357" y="135"/>
    </contour>
  </outline>
</glyph>
<glyph name="fraction" format="1">
  <advance width="565"/>
  <unicode hex="2044"/>
  <outline>
    <contour>
      <point x="33" y="-79" type="curve" smooth="yes"/>
      <point x="58" y="-79"/>
      <point x="82" y="-66"/>
      <point x="93" y="-34" type="curve"/>
      <point x="586" y="1452" type="line" smooth="yes"/>
      <point x="589" y="1463"/>
      <point x="591" y="1471"/>
      <point x="591" y="1476" type="curve" smooth="yes"/>
      <point x="591" y="1511"/>
      <point x="560" y="1532"/>
      <point x="529" y="1532" type="curve" smooth="yes"/>
      <point x="503" y="1532"/>
      <point x="477" y="1518"/>
      <point x="468" y="1488" type="curve" smooth="yes"/>
      <point x="-21" y="1" type="line" smooth="yes"/>
      <point x="-23" y="-10"/>
      <point x="-26" y="-18"/>
      <point x="-26" y="-23" type="curve" smooth="yes"/>
      <point x="-26" y="-58"/>
      <point x="3" y="-79"/>
    </contour>
  </outline>
</glyph>
<glyph name="uni2113" format="1">
  <advance width="706"/>
  <unicode hex="2113"/>
  <outline>
    <contour>
      <point x="452" y="1494" type="curve" smooth="yes"/>
      <point x="343" y="1494"/>
      <point x="237" y="1417"/>
      <point x="236" y="1206" type="curve" smooth="yes"/>
      <point x="235" y="889" type="line"/>
      <point x="58" y="750" type="line" smooth="yes"/>
      <point x="43" y="738"/>
      <point x="36" y="724"/>
      <point x="36" y="711" type="curve" smooth="yes"/>
      <point x="36" y="690"/>
      <point x="53" y="672"/>
      <point x="75" y="672" type="curve" smooth="yes"/>
      <point x="85" y="672"/>
      <point x="94" y="674"/>
      <point x="107" y="684" type="curve" smooth="yes"/>
      <point x="235" y="784" type="line"/>
      <point x="235" y="289" type="line" smooth="yes"/>
      <point x="235" y="60"/>
      <point x="333" y="-17"/>
      <point x="454" y="-17" type="curve" smooth="yes"/>
      <point x="510" y="-17"/>
      <point x="563" y="-15"/>
      <point x="591" y="-10" type="curve" smooth="yes"/>
      <point x="626" y="-4"/>
      <point x="640" y="21"/>
      <point x="640" y="44" type="curve" smooth="yes"/>
      <point x="640" y="73"/>
      <point x="618" y="106"/>
      <point x="571" y="104" type="curve" smooth="yes"/>
      <point x="506" y="101" type="line" smooth="yes"/>
      <point x="414" y="97"/>
      <point x="367" y="143"/>
      <point x="367" y="300" type="curve" smooth="yes"/>
      <point x="367" y="876" type="line"/>
      <point x="592" y="1042"/>
      <point x="662" y="1123"/>
      <point x="662" y="1257" type="curve" smooth="yes"/>
      <point x="662" y="1370"/>
      <point x="608" y="1494"/>
    </contour>
    <contour>
      <point x="452" y="1348" type="curve" smooth="yes"/>
      <point x="493" y="1348"/>
      <point x="534" y="1316"/>
      <point x="534" y="1249" type="curve" smooth="yes"/>
      <point x="534" y="1149"/>
      <point x="477" y="1067"/>
      <point x="367" y="981" type="curve"/>
      <point x="367" y="1213" type="line" smooth="yes"/>
      <point x="367" y="1316"/>
      <point x="410" y="1348"/>
    </contour>
  </outline>
</glyph>
<glyph name="Omega" format="1">
  <advance width="1480"/>
  <unicode hex="2126"/>
  <outline>
    <contour>
      <point x="329" y="0" type="curve" smooth="yes"/>
      <point x="786" y="0" type="line"/>
      <point x="528" y="366"/>
      <point x="317" y="696"/>
      <point x="317" y="937" type="curve" smooth="yes"/>
      <point x="317" y="1177"/>
      <point x="472" y="1334"/>
      <point x="867" y="1334" type="curve" smooth="yes"/>
      <point x="1262" y="1334"/>
      <point x="1418" y="1177"/>
      <point x="1418" y="937" type="curve" smooth="yes"/>
      <point x="1418" y="695"/>
      <point x="1206" y="365"/>
      <point x="949" y="0" type="curve"/>
      <point x="1406" y="0" type="line" smooth="yes"/>
      <point x="1432" y="0"/>
      <point x="1444" y="30"/>
      <point x="1444" y="61" type="curve" smooth="yes"/>
      <point x="1444" y="91"/>
      <point x="1432" y="121"/>
      <point x="1406" y="121" type="curve" smooth="yes"/>
      <point x="1127" y="121" type="line"/>
      <point x="1352" y="370"/>
      <point x="1535" y="662"/>
      <point x="1535" y="918" type="curve" smooth="yes"/>
      <point x="1535" y="1244"/>
      <point x="1383" y="1460"/>
      <point x="867" y="1460" type="curve" smooth="yes"/>
      <point x="414" y="1460"/>
      <point x="200" y="1239"/>
      <point x="200" y="918" type="curve" smooth="yes"/>
      <point x="200" y="662"/>
      <point x="386" y="360"/>
      <point x="608" y="121" type="curve"/>
      <point x="329" y="121" type="line" smooth="yes"/>
      <point x="303" y="121"/>
      <point x="290" y="91"/>
      <point x="290" y="61" type="curve" smooth="yes"/>
      <point x="290" y="30"/>
      <point x="303" y="0"/>
    </contour>
  </outline>
</glyph>
<glyph name="product" format="1">
  <advance width="1427"/>
  <unicode hex="220F"/>
  <outline>
    <contour>
      <point x="342" y="0" type="curve" smooth="yes"/>
      <point x="375" y="0"/>
      <point x="408" y="20"/>
      <point x="408" y="63" type="curve" smooth="yes"/>
      <point x="408" y="1304" type="line"/>
      <point x="1013" y="1304" type="line"/>
      <point x="1013" y="64" type="line" smooth="yes"/>
      <point x="1013" y="21"/>
      <point x="1045" y="0"/>
      <point x="1079" y="0" type="curve" smooth="yes"/>
      <point x="1111" y="0"/>
      <point x="1144" y="21"/>
      <point x="1144" y="64" type="curve" smooth="yes"/>
      <point x="1145" y="1304" type="line"/>
      <point x="1295" y="1304" type="line" smooth="yes"/>
      <point x="1333" y="1304"/>
      <point x="1352" y="1334"/>
      <point x="1352" y="1363" type="curve" smooth="yes"/>
      <point x="1352" y="1394"/>
      <point x="1333" y="1424"/>
      <point x="1295" y="1424" type="curve" smooth="yes"/>
      <point x="126" y="1424" type="line" smooth="yes"/>
      <point x="83" y="1424"/>
      <point x="61" y="1393"/>
      <point x="61" y="1363" type="curve" smooth="yes"/>
      <point x="61" y="1334"/>
      <point x="83" y="1304"/>
      <point x="128" y="1304" type="curve" smooth="yes"/>
      <point x="277" y="1304" type="line"/>
      <point x="277" y="63" type="line" smooth="yes"/>
      <point x="277" y="20"/>
      <point x="309" y="0"/>
    </contour>
  </outline>
</glyph>
<glyph name="summation" format="1">
  <advance width="1124"/>
  <unicode hex="2211"/>
  <outline>
    <contour>
      <point x="91" y="-197" type="curve" smooth="yes"/>
      <point x="1077" y="-197" type="line" smooth="yes"/>
      <point x="1118" y="-197"/>
      <point x="1138" y="-167"/>
      <point x="1138" y="-137" type="curve" smooth="yes"/>
      <point x="1138" y="-108"/>
      <point x="1118" y="-78"/>
      <point x="1077" y="-78" type="curve" smooth="yes"/>
      <point x="207" y="-78" type="line"/>
      <point x="754" y="628" type="line"/>
      <point x="245" y="1317" type="line"/>
      <point x="1047" y="1317" type="line" smooth="yes"/>
      <point x="1084" y="1317"/>
      <point x="1102" y="1340"/>
      <point x="1102" y="1369" type="curve" smooth="yes"/>
      <point x="1102" y="1395"/>
      <point x="1084" y="1421"/>
      <point x="1047" y="1421" type="curve" smooth="yes"/>
      <point x="123" y="1421" type="line" smooth="yes"/>
      <point x="76" y="1421"/>
      <point x="61" y="1396"/>
      <point x="61" y="1371" type="curve" smooth="yes"/>
      <point x="61" y="1357"/>
      <point x="67" y="1343"/>
      <point x="72" y="1335" type="curve" smooth="yes"/>
      <point x="610" y="609" type="line"/>
      <point x="47" y="-112" type="line" smooth="yes"/>
      <point x="39" y="-122"/>
      <point x="36" y="-133"/>
      <point x="36" y="-146" type="curve" smooth="yes"/>
      <point x="36" y="-170"/>
      <point x="50" y="-197"/>
    </contour>
  </outline>
</glyph>
<glyph name="minus" format="1">
  <advance width="669"/>
  <unicode hex="2212"/>
  <outline>
    <contour>
      <point x="92" y="465" type="curve" smooth="yes"/>
      <point x="573" y="465" type="line" smooth="yes"/>
      <point x="615" y="465"/>
      <point x="634" y="495"/>
      <point x="634" y="525" type="curve" smooth="yes"/>
      <point x="634" y="556"/>
      <point x="615" y="587"/>
      <point x="573" y="587" type="curve" smooth="yes"/>
      <point x="92" y="587" type="line" smooth="yes"/>
      <point x="50" y="587"/>
      <point x="31" y="557"/>
      <point x="31" y="526" type="curve" smooth="yes"/>
      <point x="31" y="496"/>
      <point x="51" y="465"/>
    </contour>
  </outline>
</glyph>
<glyph name="radical" format="1">
  <advance width="1259"/>
  <unicode hex="221A"/>
  <outline>
    <contour>
      <point x="456" y="-150" type="curve" smooth="yes"/>
      <point x="506" y="-150"/>
      <point x="553" y="-135"/>
      <point x="571" y="-77" type="curve" smooth="yes"/>
      <point x="1135" y="1445" type="line" smooth="yes"/>
      <point x="1139" y="1455"/>
      <point x="1139" y="1459"/>
      <point x="1139" y="1466" type="curve" smooth="yes"/>
      <point x="1139" y="1500"/>
      <point x="1109" y="1525"/>
      <point x="1075" y="1525" type="curve" smooth="yes"/>
      <point x="1040" y="1525"/>
      <point x="1022" y="1504"/>
      <point x="1012" y="1478" type="curve" smooth="yes"/>
      <point x="457" y="8" type="line"/>
      <point x="454" y="6" type="line"/>
      <point x="220" y="507" type="line" smooth="yes"/>
      <point x="210" y="535"/>
      <point x="185" y="552"/>
      <point x="158" y="552" type="curve" smooth="yes"/>
      <point x="121" y="550"/>
      <point x="83" y="517"/>
      <point x="85" y="477" type="curve" smooth="yes"/>
      <point x="84" y="470"/>
      <point x="85" y="464"/>
      <point x="90" y="458" type="curve" smooth="yes"/>
      <point x="346" y="-72" type="line" smooth="yes"/>
      <point x="352" y="-135"/>
      <point x="411" y="-150"/>
    </contour>
  </outline>
</glyph>
<glyph name="integral" format="1">
  <advance width="708"/>
  <unicode hex="222B"/>
  <outline>
    <contour>
      <point x="151" y="-323" type="curve" smooth="yes"/>
      <point x="290" y="-323"/>
      <point x="427" y="-237"/>
      <point x="427" y="184" type="curve" smooth="yes"/>
      <point x="427" y="506"/>
      <point x="401" y="906"/>
      <point x="401" y="1221" type="curve" smooth="yes"/>
      <point x="401" y="1519"/>
      <point x="454" y="1639"/>
      <point x="578" y="1639" type="curve" smooth="yes"/>
      <point x="623" y="1639"/>
      <point x="651" y="1661"/>
      <point x="651" y="1688" type="curve" smooth="yes"/>
      <point x="651" y="1711"/>
      <point x="626" y="1734"/>
      <point x="569" y="1734" type="curve" smooth="yes"/>
      <point x="393" y="1734"/>
      <point x="284" y="1596"/>
      <point x="284" y="1232" type="curve" smooth="yes"/>
      <point x="284" y="919"/>
      <point x="312" y="510"/>
      <point x="312" y="186" type="curve" smooth="yes"/>
      <point x="312" y="-188"/>
      <point x="212" y="-221"/>
      <point x="131" y="-221" type="curve" smooth="yes"/>
      <point x="89" y="-221"/>
      <point x="63" y="-244"/>
      <point x="63" y="-270" type="curve" smooth="yes"/>
      <point x="63" y="-296"/>
      <point x="92" y="-323"/>
    </contour>
  </outline>
</glyph>
<glyph name="approxequal" format="1">
  <advance width="1162"/>
  <unicode hex="2248"/>
  <outline>
    <contour>
      <point x="825" y="328" type="curve" smooth="yes"/>
      <point x="897" y="328"/>
      <point x="957" y="378"/>
      <point x="957" y="473" type="curve" smooth="yes"/>
      <point x="957" y="500"/>
      <point x="930" y="521"/>
      <point x="906" y="521" type="curve" smooth="yes"/>
      <point x="839" y="521"/>
      <point x="858" y="450"/>
      <point x="818" y="450" type="curve" smooth="yes"/>
      <point x="773" y="450"/>
      <point x="398" y="521"/>
      <point x="312" y="521" type="curve" smooth="yes"/>
      <point x="259" y="521"/>
      <point x="177" y="482"/>
      <point x="177" y="378" type="curve" smooth="yes"/>
      <point x="177" y="352"/>
      <point x="198" y="331"/>
      <point x="225" y="331" type="curve" smooth="yes"/>
      <point x="237" y="331"/>
      <point x="248" y="331"/>
      <point x="258" y="339" type="curve" smooth="yes"/>
      <point x="298" y="369"/>
      <point x="291" y="400"/>
      <point x="327" y="400" type="curve"/>
      <point x="379" y="397"/>
      <point x="746" y="328"/>
    </contour>
    <contour>
      <point x="825" y="653" type="curve" smooth="yes"/>
      <point x="897" y="653"/>
      <point x="957" y="701"/>
      <point x="957" y="796" type="curve" smooth="yes"/>
      <point x="957" y="825"/>
      <point x="930" y="845"/>
      <point x="906" y="845" type="curve" smooth="yes"/>
      <point x="839" y="845"/>
      <point x="858" y="773"/>
      <point x="818" y="773" type="curve" smooth="yes"/>
      <point x="773" y="773"/>
      <point x="398" y="845"/>
      <point x="312" y="845" type="curve" smooth="yes"/>
      <point x="259" y="845"/>
      <point x="177" y="805"/>
      <point x="177" y="701" type="curve" smooth="yes"/>
      <point x="177" y="675"/>
      <point x="198" y="655"/>
      <point x="225" y="655" type="curve" smooth="yes"/>
      <point x="237" y="655"/>
      <point x="248" y="656"/>
      <point x="258" y="662" type="curve" smooth="yes"/>
      <point x="298" y="693"/>
      <point x="291" y="725"/>
      <point x="327" y="725" type="curve"/>
      <point x="379" y="721"/>
      <point x="746" y="653"/>
    </contour>
  </outline>
</glyph>
<glyph name="notequal" format="1">
  <advance width="1160"/>
  <unicode hex="2260"/>
  <outline>
    <contour>
      <point x="334" y="2" type="curve" smooth="yes"/>
      <point x="359" y="2"/>
      <point x="379" y="12"/>
      <point x="393" y="41" type="curve" smooth="yes"/>
      <point x="518" y="301" type="line"/>
      <point x="1037" y="301" type="line" smooth="yes"/>
      <point x="1078" y="301"/>
      <point x="1099" y="330"/>
      <point x="1099" y="362" type="curve" smooth="yes"/>
      <point x="1099" y="392"/>
      <point x="1078" y="421"/>
      <point x="1037" y="421" type="curve" smooth="yes"/>
      <point x="576" y="421" type="line"/>
      <point x="701" y="685" type="line"/>
      <point x="1037" y="685" type="line" smooth="yes"/>
      <point x="1078" y="685"/>
      <point x="1098" y="715"/>
      <point x="1098" y="745" type="curve" smooth="yes"/>
      <point x="1098" y="776"/>
      <point x="1077" y="806"/>
      <point x="1037" y="806" type="curve" smooth="yes"/>
      <point x="760" y="806" type="line"/>
      <point x="852" y="999" type="line" smooth="yes"/>
      <point x="857" y="1009"/>
      <point x="861" y="1019"/>
      <point x="860" y="1031" type="curve"/>
      <point x="860" y="1066"/>
      <point x="828" y="1089"/>
      <point x="795" y="1089" type="curve" smooth="yes"/>
      <point x="771" y="1089"/>
      <point x="747" y="1077"/>
      <point x="734" y="1049" type="curve" smooth="yes"/>
      <point x="619" y="806" type="line"/>
      <point x="140" y="806" type="line" smooth="yes"/>
      <point x="99" y="806"/>
      <point x="79" y="776"/>
      <point x="79" y="747" type="curve" smooth="yes"/>
      <point x="79" y="714"/>
      <point x="100" y="685"/>
      <point x="140" y="685" type="curve" smooth="yes"/>
      <point x="560" y="685" type="line"/>
      <point x="435" y="421" type="line"/>
      <point x="140" y="421" type="line" smooth="yes"/>
      <point x="99" y="421"/>
      <point x="79" y="391"/>
      <point x="79" y="362" type="curve" smooth="yes"/>
      <point x="79" y="330"/>
      <point x="100" y="301"/>
      <point x="140" y="301" type="curve" smooth="yes"/>
      <point x="378" y="301" type="line"/>
      <point x="279" y="92" type="line" smooth="yes"/>
      <point x="272" y="80"/>
      <point x="272" y="70"/>
      <point x="271" y="59" type="curve"/>
      <point x="271" y="24"/>
      <point x="303" y="2"/>
    </contour>
  </outline>
</glyph>
<glyph name="fl" format="1">
  <advance width="1143"/>
  <unicode hex="FB02"/>
  <outline>
    <contour>
      <point x="313" y="1" type="curve" smooth="yes"/>
      <point x="347" y="1"/>
      <point x="380" y="24"/>
      <point x="380" y="66" type="curve" smooth="yes"/>
      <point x="380" y="876" type="line"/>
      <point x="552" y="876" type="line" smooth="yes"/>
      <point x="590" y="876"/>
      <point x="609" y="904"/>
      <point x="609" y="933" type="curve" smooth="yes"/>
      <point x="609" y="961"/>
      <point x="590" y="988"/>
      <point x="552" y="988" type="curve" smooth="yes"/>
      <point x="380" y="988" type="line"/>
      <point x="380" y="1021" type="line" smooth="yes"/>
      <point x="380" y="1260"/>
      <point x="396" y="1340"/>
      <point x="507" y="1340" type="curve" smooth="yes"/>
      <point x="770" y="1340" type="line"/>
      <point x="770" y="67" type="line" smooth="yes"/>
      <point x="770" y="20"/>
      <point x="800" y="0"/>
      <point x="833" y="0" type="curve" smooth="yes"/>
      <point x="865" y="0"/>
      <point x="900" y="23"/>
      <point x="900" y="67" type="curve" smooth="yes"/>
      <point x="900" y="1355" type="line" smooth="yes"/>
      <point x="900" y="1401"/>
      <point x="869" y="1421"/>
      <point x="836" y="1421" type="curve" smooth="yes"/>
      <point x="802" y="1421"/>
      <point x="771" y="1399"/>
      <point x="770" y="1356" type="curve"/>
      <point x="766" y="1359"/>
      <point x="699" y="1444"/>
      <point x="482" y="1444" type="curve"/>
      <point x="344" y="1445"/>
      <point x="249" y="1358"/>
      <point x="249" y="1107" type="curve" smooth="yes"/>
      <point x="249" y="988" type="line"/>
      <point x="99" y="988" type="line" smooth="yes"/>
      <point x="61" y="988"/>
      <point x="43" y="961"/>
      <point x="43" y="933" type="curve" smooth="yes"/>
      <point x="43" y="905"/>
      <point x="61" y="876"/>
      <point x="99" y="876" type="curve" smooth="yes"/>
      <point x="249" y="876" type="line"/>
      <point x="249" y="66" type="line" smooth="yes"/>
      <point x="249" y="22"/>
      <point x="282" y="1"/>
    </contour>
  </outline>
</glyph>
<glyph name="caron.alt" format="1">
  <advance width="588"/>
  <outline>
    <contour>
      <point x="22" y="311" type="move" name="_caron.alt"/>
    </contour>
    <contour>
      <point x="301" y="306" type="curve"/>
      <point x="304" y="306" type="line"/>
      <point x="333" y="305"/>
      <point x="349" y="317"/>
      <point x="360" y="349" type="curve" smooth="yes"/>
      <point x="481" y="726" type="line" smooth="yes"/>
      <point x="486" y="740"/>
      <point x="489" y="779"/>
      <point x="447" y="782" type="curve"/>
      <point x="410" y="782" type="line"/>
      <point x="378" y="781"/>
      <point x="345" y="773"/>
      <point x="337" y="726" type="curve" smooth="yes"/>
      <point x="277" y="349" type="line" smooth="yes"/>
      <point x="275" y="337"/>
      <point x="273" y="307"/>
    </contour>
  </outline>
</glyph>
<glyph name="dotaccentcmb" format="1">
  <advance width="600"/>
  <outline>
    <contour>
      <point x="271" y="1204" type="curve" smooth="yes"/>
      <point x="334" y="1204"/>
      <point x="367" y="1244"/>
      <point x="367" y="1288" type="curve" smooth="yes"/>
      <point x="367" y="1326"/>
      <point x="337" y="1372"/>
      <point x="271" y="1372" type="curve" smooth="yes"/>
      <point x="208" y="1372"/>
      <point x="176" y="1328"/>
      <point x="176" y="1288" type="curve" smooth="yes"/>
      <point x="176" y="1245"/>
      <point x="207" y="1204"/>
    </contour>
  </outline>
</glyph>
